<svg width="423.927" height="70.802" viewBox="0 0 423.927 70.802" xmlns="http://www.w3.org/2000/svg"><g id="svgGroup" stroke-linecap="round" fill-rule="evenodd" font-size="9pt" stroke="#223c7e" stroke-width="0.25mm" fill="#223c7e" style="stroke:#223c7e;stroke-width:0.25mm;fill:#223c7e"><path d="M 138.428 39.21 L 138.428 69.825 L 129.688 69.825 L 129.688 28.272 Q 129.688 23.633 129.615 20.826 A 104.407 104.407 0 0 0 129.577 19.608 Q 129.507 17.778 129.395 16.993 L 137.696 16.993 A 67.05 67.05 0 0 1 137.769 17.867 Q 137.8 18.26 137.83 18.701 A 138.49 138.49 0 0 1 137.891 19.63 A 94.642 94.642 0 0 1 138.01 22.042 A 105.638 105.638 0 0 1 138.038 22.877 A 121.072 121.072 0 0 1 138.074 24.506 A 98.134 98.134 0 0 1 138.087 26.026 L 138.233 26.026 A 28.084 28.084 0 0 1 140.181 22.709 Q 141.289 21.105 142.503 19.937 A 12.462 12.462 0 0 1 144.727 18.214 A 14.941 14.941 0 0 1 149.5 16.407 Q 151.438 16.016 153.663 16.016 Q 157.924 16.016 160.919 17.221 A 11.608 11.608 0 0 1 163.16 18.409 Q 166.47 20.678 167.871 25.493 A 20.392 20.392 0 0 1 168.018 26.026 L 168.165 26.026 Q 170.418 21.639 173.452 19.276 A 13.598 13.598 0 0 1 174.781 18.36 A 15.846 15.846 0 0 1 179.967 16.403 A 21.87 21.87 0 0 1 184.18 16.016 A 23.257 23.257 0 0 1 188.497 16.389 Q 190.876 16.839 192.708 17.833 A 10.62 10.62 0 0 1 195.826 20.362 Q 199.149 24.332 199.436 32.95 A 50.199 50.199 0 0 1 199.464 34.62 L 199.464 69.825 L 190.772 69.825 L 190.772 36.329 Q 190.772 28.663 188.673 25.733 A 6.288 6.288 0 0 0 185.79 23.559 Q 184.686 23.122 183.293 22.938 A 16.729 16.729 0 0 0 181.104 22.803 A 12.401 12.401 0 0 0 177.069 23.429 A 10.172 10.172 0 0 0 172.144 27.076 A 14.341 14.341 0 0 0 169.972 31.456 Q 169.363 33.416 169.115 35.782 A 32.991 32.991 0 0 0 168.946 39.21 L 168.946 69.825 L 160.255 69.825 L 160.255 36.329 Q 160.255 28.663 158.155 25.733 A 6.288 6.288 0 0 0 155.272 23.559 Q 154.169 23.122 152.775 22.938 A 16.729 16.729 0 0 0 150.587 22.803 A 11.787 11.787 0 0 0 146.338 23.54 A 10.5 10.5 0 0 0 141.7 27.1 A 14.467 14.467 0 0 0 139.421 31.67 Q 138.428 34.907 138.428 39.21 Z M 221.729 39.21 L 221.729 69.825 L 212.989 69.825 L 212.989 28.272 Q 212.989 23.633 212.916 20.826 A 104.407 104.407 0 0 0 212.877 19.608 Q 212.808 17.778 212.696 16.993 L 220.997 16.993 A 67.05 67.05 0 0 1 221.07 17.867 Q 221.1 18.26 221.131 18.701 A 138.49 138.49 0 0 1 221.192 19.63 A 94.642 94.642 0 0 1 221.311 22.042 A 105.638 105.638 0 0 1 221.339 22.877 A 121.072 121.072 0 0 1 221.375 24.506 A 98.134 98.134 0 0 1 221.387 26.026 L 221.534 26.026 A 28.084 28.084 0 0 1 223.482 22.709 Q 224.59 21.105 225.804 19.937 A 12.462 12.462 0 0 1 228.028 18.214 A 14.941 14.941 0 0 1 232.801 16.407 Q 234.739 16.016 236.964 16.016 Q 241.225 16.016 244.22 17.221 A 11.608 11.608 0 0 1 246.461 18.409 Q 249.771 20.678 251.172 25.493 A 20.392 20.392 0 0 1 251.319 26.026 L 251.465 26.026 Q 253.719 21.639 256.752 19.276 A 13.598 13.598 0 0 1 258.082 18.36 A 15.846 15.846 0 0 1 263.268 16.403 A 21.87 21.87 0 0 1 267.481 16.016 A 23.257 23.257 0 0 1 271.798 16.389 Q 274.176 16.839 276.009 17.833 A 10.62 10.62 0 0 1 279.127 20.362 Q 282.45 24.332 282.737 32.95 A 50.199 50.199 0 0 1 282.764 34.62 L 282.764 69.825 L 274.073 69.825 L 274.073 36.329 Q 274.073 28.663 271.973 25.733 A 6.288 6.288 0 0 0 269.09 23.559 Q 267.987 23.122 266.593 22.938 A 16.729 16.729 0 0 0 264.405 22.803 A 12.401 12.401 0 0 0 260.369 23.429 A 10.172 10.172 0 0 0 255.445 27.076 A 14.341 14.341 0 0 0 253.273 31.456 Q 252.664 33.416 252.416 35.782 A 32.991 32.991 0 0 0 252.247 39.21 L 252.247 69.825 L 243.555 69.825 L 243.555 36.329 Q 243.555 28.663 241.456 25.733 A 6.288 6.288 0 0 0 238.573 23.559 Q 237.47 23.122 236.076 22.938 A 16.729 16.729 0 0 0 233.887 22.803 A 11.787 11.787 0 0 0 229.639 23.54 A 10.5 10.5 0 0 0 225.001 27.1 A 14.467 14.467 0 0 0 222.722 31.67 Q 221.729 34.907 221.729 39.21 Z M 55.714 48.829 L 63.331 52.637 A 33.32 33.32 0 0 1 57.655 61.087 A 29.084 29.084 0 0 1 51.392 66.163 A 32.239 32.239 0 0 1 38.47 70.512 A 40.787 40.787 0 0 1 33.546 70.801 A 42.225 42.225 0 0 1 24.963 69.97 A 31.334 31.334 0 0 1 15.577 66.456 A 28.906 28.906 0 0 1 4.029 54.078 A 36.958 36.958 0 0 1 0.718 43.819 A 50.528 50.528 0 0 1 0.001 35.108 Q 0.001 24.513 3.724 16.825 A 31.408 31.408 0 0 1 4.005 16.26 A 28.064 28.064 0 0 1 15.528 4.2 A 32.265 32.265 0 0 1 25.49 0.694 A 44.167 44.167 0 0 1 33.497 0.001 A 46.539 46.539 0 0 1 41.528 0.656 Q 47.363 1.679 51.856 4.298 A 25.169 25.169 0 0 1 62.247 16.002 A 31.378 31.378 0 0 1 62.696 17.042 L 53.858 19.971 A 18.227 18.227 0 0 0 46.168 10.792 A 22.026 22.026 0 0 0 38.363 7.993 A 29.199 29.199 0 0 0 33.594 7.618 A 28.446 28.446 0 0 0 26.057 8.562 A 20.303 20.303 0 0 0 15.821 14.966 A 24.685 24.685 0 0 0 10.777 24.632 Q 9.758 28.288 9.536 32.625 A 48.42 48.42 0 0 0 9.473 35.108 A 39.805 39.805 0 0 0 10.133 42.526 A 29.953 29.953 0 0 0 12.476 49.83 A 24.15 24.15 0 0 0 17.167 56.592 A 22.066 22.066 0 0 0 20.972 59.644 A 22.229 22.229 0 0 0 29.807 62.844 A 28.992 28.992 0 0 0 33.985 63.135 A 22.628 22.628 0 0 0 46.125 59.89 Q 51.904 56.321 55.714 48.829 Z M 329.639 60.792 L 329.493 60.792 A 26.856 26.856 0 0 1 327.194 64.309 Q 325.794 66.104 324.23 67.346 A 13.799 13.799 0 0 1 322.486 68.531 A 16.399 16.399 0 0 1 317.869 70.269 Q 315.912 70.702 313.656 70.783 A 29.415 29.415 0 0 1 312.598 70.801 A 27.701 27.701 0 0 1 307.963 70.44 Q 302.742 69.552 299.879 66.48 A 12.6 12.6 0 0 1 297.385 62.345 Q 295.85 58.346 295.85 52.198 L 295.85 16.993 L 304.688 16.993 L 304.688 50.489 A 39.813 39.813 0 0 0 304.833 54.021 Q 305.285 59.079 307.154 61.207 A 7.178 7.178 0 0 0 309.918 63.101 Q 312.179 64.014 315.577 64.014 A 14.904 14.904 0 0 0 320.043 63.377 A 11.68 11.68 0 0 0 325.587 59.669 A 14.536 14.536 0 0 0 328.386 54.303 Q 329.006 52.182 329.18 49.652 A 29.736 29.736 0 0 0 329.249 47.608 L 329.249 16.993 L 338.038 16.993 L 338.038 58.546 Q 338.038 63.135 338.111 65.967 Q 338.174 68.418 338.293 69.516 A 9.062 9.062 0 0 0 338.331 69.825 L 330.03 69.825 A 1.934 1.934 0 0 1 330.01 69.674 Q 329.968 69.29 329.894 68.103 A 200.807 200.807 0 0 1 329.859 67.53 A 72.452 72.452 0 0 1 329.8 66.34 Q 329.722 64.522 329.655 61.517 A 517.949 517.949 0 0 1 329.639 60.792 Z M 423.926 45.264 L 386.231 45.264 Q 386.231 54.346 389.991 59.278 A 12.198 12.198 0 0 0 398.134 63.998 A 18.346 18.346 0 0 0 400.977 64.21 A 23.203 23.203 0 0 0 404.637 63.938 Q 407.873 63.421 410.132 61.915 A 12.737 12.737 0 0 0 412.946 59.405 A 10.706 10.706 0 0 0 414.796 56.104 L 422.51 58.301 Q 417.95 70.337 402.207 70.784 A 43.374 43.374 0 0 1 400.977 70.801 A 31.384 31.384 0 0 1 393.889 70.05 Q 388.804 68.871 385.199 65.845 A 19.02 19.02 0 0 1 383.131 63.819 Q 378.383 58.41 377.314 48.928 A 52.354 52.354 0 0 1 377.003 43.067 Q 377.003 34.058 379.907 27.941 A 21.286 21.286 0 0 1 383.131 22.999 A 19.86 19.86 0 0 1 394.037 16.698 A 30.155 30.155 0 0 1 400.635 16.016 A 30.844 30.844 0 0 1 407.357 16.703 Q 411.849 17.706 415.119 20.175 A 17.751 17.751 0 0 1 418.116 23.048 Q 422.44 28.28 423.546 37.381 A 55.739 55.739 0 0 1 423.926 44.092 L 423.926 45.264 Z M 372.022 62.94 L 372.022 69.434 Q 367.725 70.606 363.135 70.606 A 14.733 14.733 0 0 1 360.097 70.313 Q 357.038 69.668 355.225 67.603 A 9.449 9.449 0 0 1 353.423 64.41 Q 352.934 62.994 352.732 61.258 A 22.619 22.619 0 0 1 352.589 58.643 L 352.589 23.389 L 346.485 23.389 L 346.485 16.993 L 352.93 16.993 L 355.518 5.176 L 361.378 5.176 L 361.378 16.993 L 371.143 16.993 L 371.143 23.389 L 361.378 23.389 L 361.378 56.739 A 18.505 18.505 0 0 0 361.455 58.501 Q 361.63 60.324 362.199 61.428 A 3.82 3.82 0 0 0 362.623 62.086 Q 363.868 63.624 366.944 63.624 A 11.708 11.708 0 0 0 367.884 63.581 Q 368.954 63.494 370.481 63.229 A 61.143 61.143 0 0 0 372.022 62.94 Z M 112.452 64.014 A 20.45 20.45 0 0 0 116.16 57.956 Q 118.555 52.047 118.555 43.36 A 54.692 54.692 0 0 0 118.086 35.929 Q 116.918 27.436 112.842 22.681 Q 108.826 17.995 101.646 16.604 A 34.877 34.877 0 0 0 95.02 16.016 A 38.664 38.664 0 0 0 93.304 16.054 Q 82.765 16.522 77.271 22.852 Q 71.339 29.688 71.339 43.36 Q 71.339 50.65 73.106 56.063 A 22.869 22.869 0 0 0 77.247 63.746 A 18.455 18.455 0 0 0 79.112 65.672 Q 82.661 68.839 87.781 70.051 A 30.156 30.156 0 0 0 94.727 70.801 A 38.834 38.834 0 0 0 95.521 70.793 Q 99.325 70.716 102.518 69.886 A 19.646 19.646 0 0 0 112.452 64.014 Z M 109.327 43.36 A 58.472 58.472 0 0 0 109.084 37.826 Q 108.439 31.067 106.08 27.466 Q 102.972 22.723 95.817 22.52 A 22.852 22.852 0 0 0 95.167 22.51 A 18.55 18.55 0 0 0 90.963 22.956 Q 86.43 24.011 84.009 27.564 A 16.104 16.104 0 0 0 82.05 31.711 Q 80.77 35.682 80.595 41.478 A 62.393 62.393 0 0 0 80.567 43.36 Q 80.567 53.809 83.961 59.058 A 11.105 11.105 0 0 0 92.012 64.119 A 17.411 17.411 0 0 0 94.63 64.307 Q 100.18 64.307 103.507 61.807 A 10.478 10.478 0 0 0 105.933 59.229 Q 109.021 54.608 109.299 45.256 A 63.854 63.854 0 0 0 109.327 43.36 Z M 386.329 38.526 L 414.844 38.526 Q 414.112 30.176 410.596 26.343 A 11.353 11.353 0 0 0 404.915 23.027 Q 402.909 22.51 400.489 22.51 Q 394.092 22.51 390.357 26.783 Q 386.971 30.655 386.414 37.155 A 29.614 29.614 0 0 0 386.329 38.526 Z" vector-effect="non-scaling-stroke"/></g></svg>