<?xml version="1.0" encoding="UTF-8" standalone="no"?>
<!-- Created with Inkscape (http://www.inkscape.org/) -->

<svg
   xmlns:dc="http://purl.org/dc/elements/1.1/"
   xmlns:cc="http://creativecommons.org/ns#"
   xmlns:rdf="http://www.w3.org/1999/02/22-rdf-syntax-ns#"
   xmlns:svg="http://www.w3.org/2000/svg"
   xmlns="http://www.w3.org/2000/svg"
   xmlns:sodipodi="http://sodipodi.sourceforge.net/DTD/sodipodi-0.dtd"
   xmlns:inkscape="http://www.inkscape.org/namespaces/inkscape"
   width="355.99521"
   height="352.4938"
   viewBox="0 0 94.190396 93.263992"
   version="1.1"
   id="svg8"
   inkscape:version="0.92.5 (2060ec1f9f, 2020-04-08)"
   sodipodi:docname="logo_commute.svg">
  <defs
     id="defs2" />
  <sodipodi:namedview
     id="base"
     pagecolor="#ffffff"
     bordercolor="#666666"
     borderopacity="1.0"
     inkscape:pageopacity="0.0"
     inkscape:pageshadow="2"
     inkscape:zoom="1.979899"
     inkscape:cx="515.51495"
     inkscape:cy="258.7669"
     inkscape:document-units="mm"
     inkscape:current-layer="layer1"
     showgrid="false"
     units="px"
     inkscape:window-width="2560"
     inkscape:window-height="1403"
     inkscape:window-x="1920"
     inkscape:window-y="0"
     inkscape:window-maximized="1"
     fit-margin-top="0"
     fit-margin-left="0"
     fit-margin-right="0"
     fit-margin-bottom="0" />
  <metadata
     id="metadata5">
    <rdf:RDF>
      <cc:Work
         rdf:about="">
        <dc:format>image/svg+xml</dc:format>
        <dc:type
           rdf:resource="http://purl.org/dc/dcmitype/StillImage" />
        <dc:title></dc:title>
      </cc:Work>
    </rdf:RDF>
  </metadata>
  <g
     inkscape:label="Layer 1"
     inkscape:groupmode="layer"
     id="layer1"
     transform="translate(-6.337374,-198.15758)">
    <path
       inkscape:connector-curvature="0"
       id="path185"
       d="m 63.641933,290.72447 c -3.32522,-1.51055 -5.185959,-4.52069 -5.198612,-8.4099 -0.0075,-2.2084 -0.09774,-2.50332 -0.993931,-3.23656 -2.929332,-2.39678 -7.640837,-7.27512 -9.462199,-9.79726 -3.350917,-4.64022 -3.603945,-4.85486 -5.723246,-4.85486 -3.391497,0 -6.275721,-1.82322 -7.794286,-4.92703 -2.992034,-6.11543 1.282898,-13.10031 8.043185,-13.14189 2.540043,-0.0149 4.498675,0.76619 6.345641,2.53294 3.54173,3.3879 3.73316,8.32599 0.492677,12.70896 -0.470699,0.63666 -0.641964,1.25967 -0.497312,1.80914 0.51316,1.94918 7.078041,9.59473 9.769109,11.37722 l 1.664002,1.10219 2.476576,-1.29366 c 3.686494,-1.92565 6.839271,-1.76567 10.154248,0.51523 1.634249,1.12446 2.024829,1.00161 5.189569,-1.6321 2.40113,-1.99823 6.5803,-7.28064 6.5803,-8.31737 0,-0.36333 -0.47507,-1.5637 -1.0557,-2.6675 -2.18204,-4.14811 -1.7028,-7.92858 1.39819,-11.02957 3.03862,-3.03862 7.05083,-3.61011 10.84549,-1.5448 6.158386,3.35183 6.213876,12.2264 0.0989,15.81005 -1.2593,0.738 -2.30595,1.00845 -4.55415,1.17678 l -2.91907,0.21855 -1.88326,2.662 c -2.18946,3.09479 -4.8894,5.9252 -7.68427,8.05558 -1.08784,0.82921 -2.0968,1.66989 -2.2421,1.86818 -0.1454,0.19829 -0.26669,1.40178 -0.26972,2.67444 -0.004,1.60083 -0.23643,2.7909 -0.75486,3.86185 -0.9269,1.91469 -3.582233,4.30366 -5.320075,4.78637 -2.029986,0.56386 -5.097112,0.42345 -6.705048,-0.30698 z"
       style="fill:#00aa00;stroke-width:0.35961938" />
    <path
       inkscape:connector-curvature="0"
       id="path185-3"
       d="m 6.990653,254.53572 c 1.510548,-3.32522 4.520692,-5.18596 8.409905,-5.19861 2.20839,-0.007 2.503319,-0.0977 3.236559,-0.99393 2.396774,-2.92933 7.275114,-7.64084 9.797254,-9.4622 4.640225,-3.35092 4.854867,-3.60394 4.854867,-5.72324 0,-3.39151 1.823212,-6.27573 4.92703,-7.7943 6.115434,-2.99203 13.10031,1.2829 13.141893,8.04319 0.01495,2.54005 -0.766189,4.49868 -2.532942,6.34565 -3.387902,3.54173 -8.326003,3.73316 -12.70897,0.49267 -0.636656,-0.4707 -1.259668,-0.64196 -1.80914,-0.49731 -1.949176,0.51316 -9.594723,7.07804 -11.377212,9.76911 l -1.102196,1.664 1.293663,2.47658 c 1.925647,3.68649 1.76567,6.83927 -0.515233,10.15425 -1.124454,1.63425 -1.001612,2.02482 1.6321,5.18956 1.998234,2.40113 7.280646,6.5803 8.317374,6.5803 0.363331,0 1.563699,-0.47507 2.667502,-1.0557 4.148109,-2.18204 7.928579,-1.7028 11.029569,1.39819 3.038625,3.03863 3.610112,7.05083 1.544804,10.8455 -3.351832,6.15838 -12.226405,6.21386 -15.810054,0.0989 -0.738005,-1.25929 -1.008452,-2.30594 -1.176783,-4.55414 l -0.218548,-2.91907 -2.662006,-1.88326 c -3.094786,-2.18946 -5.925198,-4.88941 -8.055581,-7.68427 -0.829207,-1.08785 -1.669889,-2.0968 -1.868178,-2.24211 -0.198289,-0.1454 -1.401779,-0.26669 -2.674435,-0.26972 -1.600834,-0.004 -2.790905,-0.23643 -3.861852,-0.75486 -1.914696,-0.92689 -4.303658,-3.58223 -4.786373,-5.32007 -0.563863,-2.02999 -0.423453,-5.09711 0.306983,-6.70505 z"
       style="fill:#0066ff;stroke-width:0.35961938" />
    <path
       inkscape:connector-curvature="0"
       id="path185-6"
       d="m 43.471731,198.81085 c 3.325238,1.51055 5.185997,4.5207 5.198649,8.40991 0.0075,2.20839 0.09774,2.50332 0.993931,3.23656 2.929333,2.39677 7.640837,7.27511 9.4622,9.79725 3.350916,4.64023 3.603945,4.85487 5.723245,4.85487 3.391509,0 6.275727,1.82321 7.794294,4.92702 2.99203,6.11543 -1.2829,13.10031 -8.043192,13.14189 -2.540043,0.0149 -4.498676,-0.76619 -6.345642,-2.53294 -3.54173,-3.3879 -3.73316,-8.32599 -0.492676,-12.70896 0.470698,-0.63666 0.641963,-1.25967 0.497311,-1.80914 -0.513159,-1.94918 -7.07804,-9.59472 -9.769108,-11.37721 l -1.664021,-1.1022 -2.476594,1.29366 c -3.686513,1.92565 -6.839268,1.76567 -10.154229,-0.51523 -1.634238,-1.12445 -2.024817,-1.00161 -5.189538,1.6321 -2.401112,1.99823 -6.58026,7.28065 -6.58026,8.31738 0,0.36333 0.475066,1.56369 1.055692,2.6675 2.182028,4.14811 1.702789,7.92857 -1.398184,11.02956 -3.038609,3.03862 -7.05079,3.61011 -10.845433,1.5448 -6.1583404,-3.35183 -6.2138274,-12.22639 -0.09886,-15.81004 1.259288,-0.73801 2.305935,-1.00846 4.554121,-1.17679 l 2.919056,-0.21854 1.883249,-2.66201 c 2.189447,-3.09479 4.889376,-5.9252 7.684225,-8.05558 1.087837,-0.82921 2.096788,-1.66989 2.242094,-1.86818 0.1454,-0.19829 0.26669,-1.40178 0.269718,-2.67444 0.0037,-1.60083 0.236427,-2.7909 0.754857,-3.86185 0.926888,-1.91469 3.582206,-4.30365 5.320037,-4.78637 2.029969,-0.56386 5.097108,-0.42345 6.705044,0.30698 z"
       style="fill:#00ffff;stroke-width:0.35961938" />
    <path
       inkscape:connector-curvature="0"
       id="path185-6-7"
       d="m 99.84224,235.19649 c -1.51055,3.32522 -4.52069,5.18596 -8.4099,5.19861 -2.20839,0.007 -2.50332,0.0977 -3.23656,0.99393 -2.39678,2.92934 -7.27512,7.64084 -9.79726,9.4622 -4.64022,3.35092 -4.85486,3.60395 -4.85486,5.72325 0,3.39151 -1.823216,6.27573 -4.927029,7.79429 -6.115432,2.99204 -13.100308,-1.28288 -13.14189,-8.04319 -0.01495,-2.54002 0.766188,-4.49866 2.532941,-6.34564 3.387902,-3.54173 8.32599,-3.73316 12.708963,-0.49268 0.636655,0.4707 1.259665,0.64197 1.809135,0.49731 1.94918,-0.51315 9.59473,-7.07804 11.37722,-9.7691 l 1.10219,-1.66401 -1.29366,-2.47657 c -1.92565,-3.6865 -1.76567,-6.83925 0.51523,-10.15421 1.12446,-1.63425 1.00161,-2.02481 -1.6321,-5.18955 -1.99823,-2.40111 -7.28064,-6.58026 -8.31737,-6.58026 -0.36333,0 -1.5637,0.47507 -2.667503,1.0557 -4.14811,2.18203 -7.928572,1.7028 -11.029562,-1.39818 -3.038625,-3.03862 -3.610112,-7.05079 -1.544804,-10.84543 3.351832,-6.15835 12.226397,-6.21383 15.810049,-0.0989 0.738,1.2593 1.00845,2.30593 1.17678,4.55413 l 0.21855,2.91905 2.66201,1.88324 c 3.09478,2.18944 5.92519,4.88939 8.05558,7.68423 0.8292,1.08783 1.66988,2.09679 1.86817,2.24209 0.19829,0.1454 1.40178,0.26669 2.67444,0.26972 1.60083,0.004 2.7909,0.23643 3.86185,0.75486 1.9147,0.9269 4.30366,3.58221 4.78637,5.32004 0.56387,2.02996 0.42346,5.09709 -0.30698,6.70502 z"
       style="fill:#2aff2a;stroke-width:0.35961938" />
    <rect
       id="rect245"
       width="41.458241"
       height="41.458241"
       x="31.876373"
       y="219.96761"
       style="fill:none;stroke-width:0.49447665" />
  </g>
</svg>
