<svg version="1.1" viewBox="0.0 0.0 431.68503937007875 468.78477690288713" fill="none" stroke="none" stroke-linecap="square" stroke-miterlimit="10" xmlns:xlink="http://www.w3.org/1999/xlink" xmlns="http://www.w3.org/2000/svg"><clipPath id="p.0"><path d="m0 0l431.68503 0l0 468.7848l-431.68503 0l0 -468.7848z" clip-rule="nonzero"/></clipPath><g clip-path="url(#p.0)"><path fill="#000000" fill-opacity="0.0" d="m0 0l431.68503 0l0 468.7848l-431.68503 0z" fill-rule="evenodd"/><path fill="#93c47d" d="m264.22766 112.41687l0.5395813 -8.881851c0.075286865 -1.268486 -1.0236206 -2.2242813 -2.1978455 -1.911583l-8.809677 1.5152893c-1.4181976 0.16318512 -2.171402 2.0290222 -0.82850647 3.1343155l1.4533691 1.4846115c-18.278534 16.104378 -45.70018 20.08094 -68.24919 7.1482773c-4.954834 -2.841774 -8.991867 -6.143303 -12.732742 -9.935608c-1.4533691 -1.4846039 -2.6461334 -2.8293228 -3.705307 -4.4229507c-1.0591736 -1.5936279 -2.264389 -2.9359055 -3.3152924 -4.524788c-1.0591736 -1.5936279 -2.1183472 -3.1872559 -2.7875214 -4.882721l-4.9057465 2.7681732l-13.02356 7.6291656c-1.0591736 -1.5936279 -2.1183472 -3.1872559 -3.3152924 -4.524788c-1.0591736 -1.5936279 -2.5083618 -3.0854187 -3.7135773 -4.427696c-5.6425323 -6.1946487 -12.401009 -11.05703 -20.51529 -14.724709c-27.206146 -12.319717 -60.282593 -3.7163239 -77.89089 20.326561c-23.023687 31.104843 -13.062067 74.24403 19.644753 93.00256c4.458519 2.5571136 9.213196 4.623474 13.995171 6.054428c2.0208054 0.5079498 3.7583618 -0.7933197 3.633522 -2.8372192l0 0c0.075302124 -1.2684937 -0.87758636 -2.4756317 -2.0162354 -2.793579c-8.827759 -2.439682 -17.000324 -7.126953 -24.140064 -14.180298c-17.914131 -17.493393 -22.906359 -45.30719 -11.550884 -67.68001c15.144241 -30.051758 52.45681 -40.821236 81.44958 -24.192848c4.7066727 2.6994476 8.991859 6.1433105 12.732735 9.935608c1.4450989 1.4798584 2.6461334 2.8293228 3.705307 4.4229507c1.2052155 1.3422852 2.2561188 2.9311676 3.3152924 4.5247955c1.0591888 1.5936203 2.1183624 3.1872482 2.7875214 4.8827133l4.9057617 -2.7681732l13.023544 -7.6291656c1.0591888 1.5936279 2.1183624 3.1872559 3.1734314 4.768959c1.0591888 1.5936203 2.508377 3.085411 3.7053223 4.4229507c4.2098846 4.712349 9.231262 8.578438 15.178711 11.989517c24.78241 14.213585 55.284515 10.041054 75.34444 -7.990509l2.4377136 2.0491638c0.84658813 0.8206482 2.6987 -0.089393616 2.671875 -1.7515488z" fill-rule="evenodd"/><path fill="#4a86e8" d="m330.24 194.49106l-5.476227 -7.079895c-0.951416 -1.1986389 -2.901886 -0.67778015 -3.3747253 0.69052124l-0.8309021 3.1360626c-3.8962402 -1.2480927 -7.6470947 -2.7463837 -11.122711 -4.7397766c-23.539337 -13.500656 -33.921722 -41.116684 -27.036163 -66.06123c0.5095825 -2.0072937 1.1154175 -3.6258163 1.8759155 -5.4892044c0.7512207 -1.8687286 1.3570557 -3.4872437 2.359192 -5.212059c0.42990112 -0.73996735 0.76049805 -1.8633957 1.1873169 -2.5980377c0.42993164 -0.73996735 1.0021362 -1.7248154 1.6736755 -2.3262024l-4.9532166 -2.8408432l-12.146027 -6.9661865c1.0021057 -1.7248154 1.6172485 -3.338005 2.3684692 -5.206726c0.7511902 -1.8687286 1.366333 -3.4819183 1.8666382 -5.494545c9.260193 -30.140621 -4.8575134 -63.845173 -35.961685 -77.41897c-26.993744 -11.542807 -59.049347 -3.0072675 -76.61577 20.403452c-11.991379 16.096912 -15.202103 35.270947 -10.880081 52.846024c0.5276947 1.9492569 2.6524963 2.8343277 4.2526855 1.7861099l0 0c1.064743 -0.70236206 1.7792206 -1.9320908 1.2240753 -3.23703c-3.7974243 -15.641792 -1.0993805 -32.803207 9.258148 -47.21823c16.393066 -23.097145 48.018738 -30.892717 73.65082 -18.157791c25.895386 12.8788395 37.619263 41.597855 30.009949 67.76681c-0.5003052 2.0126266 -1.1154175 3.6258163 -1.8666382 5.4945374c-0.7512207 1.8687286 -1.366333 3.4819107 -2.3684692 5.206726c-0.42993164 0.73996735 -0.7511902 1.8687286 -1.1780396 2.6033707c-0.42993164 0.73996735 -1.0021057 1.7248154 -1.6829529 2.320877l4.962494 2.8461685l12.136749 6.960861c-1.0021057 1.7248154 -1.6079407 3.3433304 -2.3591614 5.2120514c-0.76049805 1.8633957 -1.366333 3.4819107 -1.875946 5.489212c-8.59903 27.893768 2.8661804 58.763992 29.137695 73.83165c3.9588318 2.2705383 8.21463 4.0513306 12.609589 5.59256l-0.50650024 2.0019684c-0.4666443 1.3789673 1.1195984 2.6152039 2.6861572 2.200653l8.036133 -3.5956116c1.1733704 -0.31356812 1.6369324 -1.6872101 0.93951416 -2.7472687z" fill-rule="evenodd"/><path fill="#93c47d" d="m354.56772 198.63454c18.721802 -4.361908 35.778107 -17.22879 44.131683 -36.724945c11.621216 -26.822495 3.0321655 -58.671852 -20.52768 -76.125496c-26.145477 -19.2565 -60.835754 -15.850716 -82.71759 4.754257c-1.4982605 1.4440002 -1.1155701 3.6341019 0.6152649 4.6268005l0 0c1.2414551 0.7120209 2.4126282 0.39842224 3.4815063 -0.30654144c19.175262 -18.216057 49.003143 -21.787384 72.43271 -6.379074c23.671661 15.547173 32.69568 46.64789 21.154297 72.198166c-7.812744 16.86319 -22.199615 27.972473 -38.61664 32.35106c-1.9552307 0.51651 -3.7658997 0.7960205 -5.721161 1.3125305c-1.8158264 0.27656555 -3.8681946 0.40467834 -5.684021 0.6812439c-2.0523682 0.1281128 -3.723236 0.15512085 -5.641327 0.04032898l0.051605225 5.6087494l0.100616455 15.170029c-2.0523682 0.12809753 -3.723236 0.15512085 -5.6733093 0.67459106c-1.8158569 0.27656555 -4.0131836 0.6542206 -5.8290405 0.93078613c-16.771667 3.842453 -32.00818 14.144531 -41.304108 30.144272c-8.2977295 14.281723 -10.420868 30.454086 -6.978546 45.570084l-2.8791504 0.9719238c-1.5630188 0.40878296 -1.8198242 2.5647888 -0.5835266 3.2738647l7.2563477 5.147064c0.9890442 0.56726074 2.4074707 0.3954773 2.7345886 -0.7349243l3.4442139 -8.197601c0.46652222 -1.3703613 -0.59280396 -2.9632263 -2.1562195 -2.5419006l-2.0946655 0.7564697c-3.0280457 -13.547607 -1.1190186 -28.204834 6.3199463 -41.008484c8.158295 -14.041763 21.54184 -23.435974 36.250427 -27.143677c1.9552612 -0.51651 3.7659302 -0.79603577 5.5762024 -1.0630035c1.810669 -0.2795105 3.8681946 -0.4046631 5.684021 -0.68122864c2.057953 -0.13771057 3.7287903 -0.16471863 5.641754 -0.052886963l-0.046447754 -5.605789l-0.111328125 -15.163391c2.057495 -0.12515259 3.873352 -0.40171814 5.684021 -0.68122864c2.2396545 -1.006012 4.0503235 -1.2855225 6.005554 -1.8020477z" fill-rule="evenodd"/><path fill="#ffcc4c" d="m377.29013 226.39447c-6.013336 -4.4381714 -12.742432 -7.6444244 -19.299469 -9.436111c-2.0200195 -0.49583435 -3.7658997 0.79841614 -3.6382446 2.840622l0 0c-0.07644653 1.2720337 0.8814392 2.474533 2.0177612 2.7996979c8.821381 2.4372406 16.99707 7.126297 24.136261 14.169571c17.916992 17.498901 22.905273 45.313293 11.561432 67.689026c-15.149628 30.047577 -52.460327 40.815277 -81.45215 24.187408c-4.7132263 -2.703186 -8.991272 -6.136505 -12.740234 -9.929108c-1.4466248 -1.4828186 -2.6488037 -2.8350525 -3.7045898 -4.4202576c-1.2022095 -1.3522644 -2.2579956 -2.9374695 -3.317871 -4.534668c-1.0557861 -1.5852051 -2.1156616 -3.1824036 -2.7806396 -4.870056l-4.9086 2.7651672l-13.272858 7.486389c-1.059906 -1.597168 -2.1156616 -3.1824036 -3.1755676 -4.7795715c-1.0557861 -1.5852356 -2.5064697 -3.0799866 -3.7045593 -4.420288c-4.201599 -4.7053223 -9.477722 -8.720673 -15.425186 -12.131744c-25.024078 -14.352203 -55.67392 -9.935852 -75.77516 8.733093l-2.831421 -1.9505005c-1.2342224 -0.7078552 -3.0863037 0.19891357 -2.9142303 1.6134644l0.8818817 8.7083435c0.06588745 1.0270691 1.1660767 1.9846497 2.4767303 1.4205017l8.251694 -2.816803c1.5549774 -0.4144287 1.8223114 -2.5662537 0.33129883 -3.4214172l-1.4827118 -0.85040283c18.270645 -16.107391 45.54956 -19.83496 68.105194 -6.8984985c4.9534607 2.840973 9.227295 6.2814636 12.976273 10.074097c1.4466248 1.4827881 2.6488037 2.835022 3.7045898 4.4202576c1.0598755 1.5971985 2.2579956 2.9374695 3.317871 4.5346375c1.0557861 1.5852356 2.1156616 3.182434 2.7806396 4.870056l4.9169006 -2.7604065l13.264557 -7.49115c1.059906 1.5971985 2.1156616 3.182434 3.317871 4.534668c1.0557861 1.5852051 2.5106812 3.0727844 3.7045898 4.4202576c4.3439026 4.460388 9.229187 8.5781555 14.928162 11.84671c32.71106 18.760956 75.04074 5.608368 90.88272 -29.622528c12.256866 -26.779388 3.0670166 -59.299103 -21.132935 -76.78046z" fill-rule="evenodd"/><path fill="#c13018" d="m271.9316 333.6681l0 0c-1.0671082 0.7050781 -1.7814636 1.9345703 -1.4675598 3.102417c3.8029785 15.638428 1.1013184 32.800293 -9.507172 47.066498c-16.637207 22.955872 -48.11667 30.50592 -73.51079 17.909973c-25.89038 -12.873413 -37.61197 -41.59311 -30.011368 -67.763306c0.50819397 -2.0062866 1.1148071 -3.6268616 1.8742218 -5.4890747c0.7501068 -1.8675537 1.3567352 -3.4881287 2.3580627 -5.2115784c0.43048096 -0.74090576 0.7594147 -1.8622131 1.1898956 -2.603119c0.43048096 -0.7409363 1.0013428 -1.7234802 1.6737366 -2.325653l-4.950058 -2.8390198l-12.142532 -6.9641724c1.0013428 -1.7234497 1.6079559 -3.3440247 2.3580627 -5.2115784c0.7594147 -1.8622131 1.3660431 -3.482788 1.8742218 -5.4890747c8.601944 -27.893646 -2.8626862 -58.763718 -29.129616 -73.82875c-4.2149963 -2.41745 -8.716972 -4.3409424 -13.003487 -5.482315l0.5797119 -3.282364c0.22119904 -1.5123444 -1.375267 -2.757248 -2.8339844 -1.9546661l-7.8287354 4.3788605c-1.0639954 0.6996918 -1.1417084 1.9650574 -0.2896042 2.7830505l6.002571 6.7282715c0.950531 1.2037048 2.90551 0.67858887 3.1267166 -0.8337555l0.25696564 -2.1503754c3.9011002 1.2496033 7.655594 2.7515411 11.126213 4.7420654c23.540688 13.501419 33.92945 41.120255 27.033897 66.05562c-0.50819397 2.0062866 -1.1148071 3.6268616 -1.8649292 5.4944153c-0.7594147 1.8621826 -1.3660278 3.4827576 -2.3673553 5.2062073c-0.43048096 0.7409363 -0.7501221 1.8675537 -1.1805878 2.60849c-0.43048096 0.74090576 -1.0013428 1.7234497 -1.6830444 2.320282l4.959366 2.8443909l12.142517 6.9641724c-1.0013275 1.7234497 -1.6172485 3.338684 -2.3673553 5.206238c-0.7501221 1.8675232 -1.3660431 3.4827576 -1.8742218 5.4890747c-9.253632 30.146912 4.8688354 63.851288 35.972427 77.42407c26.98703 11.541046 59.040466 3.0031128 76.61061 -20.405518c11.995239 -16.0979 15.205078 -35.266052 11.130157 -52.699646c-0.2781372 -1.8058777 -2.4035034 -2.6955872 -4.256958 -1.7901306z" fill-rule="evenodd"/><path fill="#ffcc4c" d="m131.90538 320.233c-19.03167 17.978485 -48.998558 21.790009 -72.42508 6.383423c-23.67323 -15.548065 -32.697937 -46.64917 -21.011166 -72.44876c7.81052 -16.851685 22.199917 -27.972305 38.860424 -32.19844c1.9524612 -0.5180969 3.7655106 -0.79626465 5.717972 -1.3143768c1.8130493 -0.27815247 3.8728104 -0.41482544 5.685425 -0.6804352c2.0597534 -0.13665771 3.7278214 -0.1652832 5.6425858 -0.05239868l-0.046028137 -5.605545l0.1349411 -15.0221405c2.0593262 -0.12411499 3.7273865 -0.15272522 5.685425 -0.6804352c1.8074722 -0.26856995 4.0122223 -0.6547699 5.8196945 -0.92333984c16.772942 -3.8417358 32.009323 -14.14389 41.30522 -30.143631c8.4427185 -14.5312805 10.321106 -30.84401 6.8787994 -45.96l2.8752594 -0.97415924c1.5607605 -0.41005707 1.926117 -2.171135 0.5857239 -3.2725983l-7.254532 -5.146042c-0.9919739 -0.5689316 -2.41333 -0.3988266 -2.7409973 0.7312622l-3.6880035 8.057785c-0.46707153 1.3700333 0.59407043 2.9639435 2.1552734 2.541336l2.3437195 -0.6136093c3.0302887 13.548882 1.2221375 28.596687 -6.361801 41.649864c-8.1527405 14.032181 -21.538376 23.425186 -36.24642 27.133194c-1.9524612 0.5181122 -3.7655106 0.7962799 -5.57856 1.0744324c-1.8074722 0.26856995 -3.8723755 0.4022827 -5.6798477 0.67085266c-2.0597534 0.13665771 -3.7278214 0.16526794 -5.6425934 0.052383423l0.046035767 5.6055603l-0.14008331 15.01918c-2.059761 0.13667297 -3.8672333 0.40522766 -5.6802826 0.6833954c-1.8074722 0.2685547 -4.0122223 0.6547699 -5.5729904 1.0648346c-18.972107 4.218338 -35.78104 17.227112 -44.526146 36.83139c-11.622742 26.821625 -3.1724072 58.911346 20.52673 76.12497c26.144375 19.25586 60.83105 15.848022 82.71678 -4.75473c1.4971771 -1.4446411 1.1172638 -3.6331482 -0.6199646 -4.629486l0 0c-1.383667 -0.46090698 -2.799881 -0.2878418 -3.7655182 0.79626465z" fill-rule="evenodd"/><path fill="#000000" fill-opacity="0.0" d="m227.2075 12.669879l28.440948 16.31496l-18.425201 31.716534l-28.440948 -16.31496z" fill-rule="evenodd"/><path fill="#000000" fill-opacity="0.0" d="m350.74576 83.53125l28.440948 16.314957l-18.425201 31.716537l-28.440948 -16.314957z" fill-rule="evenodd"/><path fill="#000000" fill-opacity="0.0" d="m351.6316 226.30438l28.440948 16.314957l-18.425201 31.716537l-28.440948 -16.314972z" fill-rule="evenodd"/><path fill="#000000" fill-opacity="0.0" d="m102.33877 83.310356l28.44094 16.314964l-18.425194 31.716537l-28.440948 -16.314964z" fill-rule="evenodd"/><path fill="#000000" fill-opacity="0.0" d="m103.24027 224.28004l28.44094 16.314957l-18.425194 31.716522l-28.44094 -16.314941z" fill-rule="evenodd"/><path fill="#000000" fill-opacity="0.0" d="m226.62843 295.05533l28.440948 16.314972l-18.425201 31.716522l-28.440948 -16.314972z" fill-rule="evenodd"/><path fill="#000000" fill-opacity="0.0" d="m143.66371 48.125984l143.4016 0l0 35.55905l-143.4016 0z" fill-rule="evenodd"/><path fill="#000000" d="m170.33469 60.738483l-0.4375 1.125q-0.625 -0.46875 -1.96875 -0.46875q-1.25 0 -2.015625 1.09375q-0.75 1.078125 -0.75 2.7812538q0 1.625 0.765625 2.640625q0.78125 1.0 2.015625 1.0q1.34375 0 2.0625 -0.9375l0.71875 0.984375q-1.140625 1.125 -2.921875 1.125q-1.859375 0 -2.9375 -1.34375q-1.078125 -1.34375 -1.078125 -3.546875q0 -2.1406288 1.140625 -3.5468788q1.15625 -1.421875 2.96875 -1.421875q1.5625 0 2.4375 0.515625zm1.8784027 7.218754l0 -7.859379l1.25 0l0 7.640629q0 0.5625 0.3125 0.890625q0.328125 0.328125 0.84375 0.328125l0 1.09375q-2.40625 0 -2.40625 -2.09375zm5.1182556 -7.640629q0.3125 0 0.53125 0.234375q0.234375 0.21875 0.234375 0.53125q0 0.3125 -0.234375 0.546875q-0.21875 0.21875 -0.53125 0.21875q-0.3125 0 -0.546875 -0.21875q-0.21875 -0.234375 -0.21875 -0.546875q0 -0.3125 0.21875 -0.53125q0.21875 -0.234375 0.546875 -0.234375zm-0.671875 9.609379l0 -5.921875l-0.96875 0l0 -1.0468788l2.203125 0l0 6.968754l-1.234375 0zm9.066223 -3.359375l-5.03125 0q0 1.21875 0.671875 1.875q0.59375 0.578125 1.53125 0.578125q1.0625 0 1.765625 -0.625l0.515625 0.890625q-0.28125 0.296875 -0.875 0.5q-0.734375 0.265625 -1.65625 0.265625q-1.3125 0 -2.234375 -0.890625q-1.015625 -0.984375 -1.015625 -2.640625q0 -1.71875 1.046875 -2.7656288q0.9375 -0.921875 2.21875 -0.921875q1.5 0 2.34375 0.828125q0.8125 0.8125038 0.8125 2.1406288q0 0.421875 -0.09375 0.765625zm-3.0 -2.7031288q-0.828125 0 -1.390625 0.5312538q-0.53125 0.515625 -0.609375 1.265625l3.859375 0q0 -0.75 -0.46875 -1.25q-0.5 -0.5468788 -1.390625 -0.5468788zm8.691177 6.062504l0 -4.046875q0 -1.125 -0.34375 -1.5625q-0.328125 -0.4531288 -1.125 -0.4531288q-0.421875 0 -0.890625 0.2656288q-0.453125 0.25 -0.703125 0.609375l0 5.1875l-1.234375 0l0 -6.968754l0.84375 0l0.390625 0.890625q0.625 -1.015625 2.0 -1.015625q2.296875 0 2.296875 2.7812538l0 4.3125l-1.234375 0zm3.438568 -6.000004l-0.8125 0l0 -0.96875l0.8125 0l0 -1.453125l1.234375 -0.484375l0 1.9375l1.90625 0l0 0.96875l-1.90625 0l0 3.4687538q0 0.875 0.296875 1.25q0.296875 0.375 0.953125 0.375q0.46875 0 0.984375 -0.25l0.171875 1.09375q-0.765625 0.1875 -1.6875 0.1875q-0.828125 0 -1.390625 -0.609375q-0.5625 -0.609375 -0.5625 -1.546875l0 -3.9687538zm15.034134 -3.1875l-0.4375 1.125q-0.625 -0.46875 -1.96875 -0.46875q-1.25 0 -2.015625 1.09375q-0.75 1.078125 -0.75 2.7812538q0 1.625 0.765625 2.640625q0.78125 1.0 2.015625 1.0q1.34375 0 2.0625 -0.9375l0.71875 0.984375q-1.140625 1.125 -2.921875 1.125q-1.859375 0 -2.9375 -1.34375q-1.078125 -1.34375 -1.078125 -3.546875q0 -2.1406288 1.140625 -3.5468788q1.15625 -1.421875 2.96875 -1.421875q1.5625 0 2.4375 0.515625zm5.7221527 8.390629q-0.734375 0.921875 -2.265625 0.921875q-0.828125 0 -1.4375 -0.59375q-0.59375 -0.59375 -0.59375 -1.484375q0 -1.046875 0.921875 -1.78125q0.9375 -0.734375 2.375 -0.734375q0.390625 0 0.890625 0.171875q0 -1.7031288 -1.515625 -1.7031288q-1.15625 0 -1.78125 0.6250038l-0.515625 -1.0312538q0.34375 -0.28125 0.96875 -0.484375q0.625 -0.203125 1.1875 -0.203125q1.515625 0 2.203125 0.6875q0.6875 0.6875038 0.6875 2.1875038l0 2.5q0 0.921875 0.546875 1.21875l0 0.625q-0.75 0 -1.125 -0.21875q-0.375 -0.21875 -0.546875 -0.703125zm-0.109375 -2.625q-0.59375 -0.125 -0.828125 -0.125q-0.9375 0 -1.53125 0.484375q-0.59375 0.46875 -0.59375 1.125q0 1.09375 1.296875 1.09375q0.921875 0 1.65625 -0.890625l0 -1.6875zm2.721222 3.0l0.4375 -1.171875q1.03125 0.6875 1.671875 0.6875q1.140625 0 1.140625 -0.96875q0 -0.6875 -1.109375 -1.1875q-0.84375 -0.390625 -1.140625 -0.59375q-0.296875 -0.203125 -0.515625 -0.453125q-0.21875 -0.25 -0.328125 -0.546875q-0.109375 -0.296875 -0.109375 -0.625q0 -0.8593788 0.625 -1.3281288q0.625 -0.484375 1.640625 -0.484375q0.75 0 1.90625 0.46875l-0.34375 1.1562538q-0.734375 -0.5937538 -1.484375 -0.5937538q-0.4375 0 -0.75 0.21875381q-0.296875 0.203125 -0.296875 0.515625q0 0.671875 0.765625 1.015625l0.890625 0.40625q0.8125 0.375 1.171875 0.859375q0.375 0.46875 0.375 1.171875q0 0.9375 -0.65625 1.46875q-0.65625 0.53125 -1.8125 0.53125q-1.109375 0 -2.078125 -0.546875zm11.72316 -2.9375l-5.03125 0q0 1.21875 0.671875 1.875q0.59375 0.578125 1.53125 0.578125q1.0625 0 1.765625 -0.625l0.515625 0.890625q-0.28125 0.296875 -0.875 0.5q-0.734375 0.265625 -1.65625 0.265625q-1.3125 0 -2.234375 -0.890625q-1.015625 -0.984375 -1.015625 -2.640625q0 -1.71875 1.046875 -2.7656288q0.9375 -0.921875 2.21875 -0.921875q1.5 0 2.34375 0.828125q0.8125 0.8125038 0.8125 2.1406288q0 0.421875 -0.09375 0.765625zm-3.0 -2.7031288q-0.828125 0 -1.390625 0.5312538q-0.53125 0.515625 -0.609375 1.265625l3.859375 0q0 -0.75 -0.46875 -1.25q-0.5 -0.5468788 -1.390625 -0.5468788zm8.081543 5.625004l0.46875 -1.203125q0.375 0.28125 0.90625 0.453125q0.546875 0.171875 0.984375 0.171875q0.75 0 1.21875 -0.40625q0.46875 -0.421875 0.46875 -1.0625q0 -0.484375 -0.265625 -0.890625q-0.25 -0.421875 -1.28125 -0.90625l-0.78125 -0.359375q-0.96875 -0.453125 -1.359375 -1.078125q-0.390625 -0.6250038 -0.390625 -1.5000038q0 -1.078125 0.75 -1.78125q0.765625 -0.703125 1.953125 -0.703125q1.578125 0 2.203125 0.515625l-0.390625 1.140625q-0.265625 -0.1875 -0.796875 -0.359375q-0.53125 -0.1875 -0.984375 -0.1875q-0.671875 0 -1.046875 0.390625q-0.375 0.375 -0.375 0.953125q0 0.375 0.125 0.671875q0.140625 0.296875 0.375 0.5q0.25 0.20312881 1.015625 0.5625038l0.78125 0.375q0.96875 0.46875 1.359375 1.109375q0.40625 0.640625 0.40625 1.625q0 1.078125 -0.875 1.828125q-0.859375 0.734375 -2.296875 0.734375q-1.28125 0 -2.171875 -0.59375zm7.191513 -5.562504l-0.8125 0l0 -0.96875l0.8125 0l0 -1.453125l1.234375 -0.484375l0 1.9375l1.90625 0l0 0.96875l-1.90625 0l0 3.4687538q0 0.875 0.296875 1.25q0.296875 0.375 0.953125 0.375q0.46875 0 0.984375 -0.25l0.171875 1.09375q-0.765625 0.1875 -1.6875 0.1875q-0.828125 0 -1.390625 -0.609375q-0.5625 -0.609375 -0.5625 -1.546875l0 -3.9687538zm6.0031433 -0.96875l0 4.437504q0 1.625 1.40625 1.625q0.609375 0 1.109375 -0.34375q0.515625 -0.359375 0.671875 -0.828125l0 -4.890629l1.234375 0l0 6.968754l-1.234375 0l0 -0.96875q-0.203125 0.421875 -0.828125 0.765625q-0.625 0.328125 -1.234375 0.328125q-1.140625 0 -1.75 -0.65625q-0.609375 -0.65625 -0.609375 -1.859375l0 -4.578129l1.234375 0zm10.532318 6.968754l0 -0.515625q-0.640625 0.640625 -1.875 0.640625q-1.3125 0 -2.125 -0.9375q-0.8125 -0.9375 -0.8125 -2.5q0 -1.5625 0.9375 -2.6718788q0.9375 -1.109375 2.234375 -1.109375q1.078125 0 1.640625 0.5l0 -3.234375l1.234375 0l0 9.828129l-1.234375 0zm0 -5.359375q-0.46875 -0.7031288 -1.28125 -0.7031288q-1.0 0 -1.609375 0.7500038q-0.609375 0.734375 -0.609375 1.890625q0 2.515625 2.28125 2.515625q0.296875 0 0.703125 -0.1875q0.40625 -0.1875 0.515625 -0.390625l0 -3.875zm5.6755066 6.546875q-0.25 0.65625 -1.03125 1.09375q-0.765625 0.453125 -1.703125 0.453125l0 -1.109375q0.765625 0 1.3125 -0.359375q0.5625 -0.359375 0.5625 -0.875q0 -0.578125 -0.203125 -1.125q-0.203125 -0.5625 -0.515625 -1.390625l-1.890625 -4.843754l1.265625 0l2.046875 5.390629l1.84375 -5.390629l1.265625 0l-2.953125 8.156254z" fill-rule="nonzero"/><path fill="#000000" fill-opacity="0.0" d="m270.43002 260.7509l138.67715 0l0 35.55905l-138.67715 0z" fill-rule="evenodd"/><path fill="#000000" d="m284.8046 277.70712q0 -2.078125 1.03125 -3.46875q1.046875 -1.390625 2.8125 -1.390625q1.984375 0 3.03125 1.28125q1.0625 1.28125 1.0625 3.578125q0 2.34375 -1.0625 3.671875q-1.046875 1.328125 -3.03125 1.328125q-1.796875 0 -2.828125 -1.40625q-1.015625 -1.40625 -1.015625 -3.59375zm1.375 0q0 1.640625 0.640625 2.734375q0.65625 1.09375 1.828125 1.09375q1.328125 0 2.03125 -1.0q0.703125 -1.015625 0.703125 -2.828125q0 -3.6875 -2.734375 -3.6875q-1.203125 0 -1.84375 1.0q-0.625 0.984375 -0.625 2.6875zm9.1996155 4.453125l0 3.125l-1.234375 0l0 -9.703125l1.234375 0l0 0.578125q0.703125 -0.703125 1.703125 -0.703125q1.484375 0 2.3125 0.921875q0.828125 0.921875 0.828125 2.703125q0 1.59375 -0.84375 2.59375q-0.828125 1.0 -2.40625 1.0q-0.4375 0 -0.9375 -0.15625q-0.5 -0.15625 -0.65625 -0.359375zm0 -5.078125l0 4.0625q0.125 0.171875 0.5 0.34375q0.375 0.15625 0.734375 0.15625q2.3125 0 2.3125 -2.609375q0 -1.3125 -0.546875 -1.921875q-0.546875 -0.625 -1.765625 -0.625q-0.25 0 -0.625 0.1875q-0.375 0.1875 -0.609375 0.40625zm12.066101 2.109375l-5.03125 0q0 1.21875 0.671875 1.875q0.59375 0.578125 1.53125 0.578125q1.0625 0 1.765625 -0.625l0.515625 0.890625q-0.28125 0.296875 -0.875 0.5q-0.734375 0.265625 -1.65625 0.265625q-1.3125 0 -2.234375 -0.890625q-1.015625 -0.984375 -1.015625 -2.640625q0 -1.71875 1.046875 -2.765625q0.9375 -0.921875 2.21875 -0.921875q1.5 0 2.34375 0.828125q0.8125 0.8125 0.8125 2.140625q0 0.421875 -0.09375 0.765625zm-3.0 -2.703125q-0.828125 0 -1.390625 0.53125q-0.53125 0.515625 -0.609375 1.265625l3.859375 0q0 -0.75 -0.46875 -1.25q-0.5 -0.546875 -1.390625 -0.546875zm8.191193 0.28125q-0.40625 -0.28125 -0.8125 -0.28125q-0.65625 0 -1.15625 0.609375q-0.484375 0.609375 -0.484375 1.453125l0 4.0l-1.25 0l0 -6.96875l1.25 0l0 1.109375q0.671875 -1.234375 2.0 -1.234375q0.34375 0 0.96875 0.109375l-0.515625 1.203125zm5.3208923 4.984375q-0.734375 0.921875 -2.265625 0.921875q-0.828125 0 -1.4375 -0.59375q-0.59375 -0.59375 -0.59375 -1.484375q0 -1.046875 0.921875 -1.78125q0.9375 -0.734375 2.375 -0.734375q0.390625 0 0.890625 0.171875q0 -1.703125 -1.515625 -1.703125q-1.15625 0 -1.78125 0.625l-0.515625 -1.03125q0.34375 -0.28125 0.96875 -0.484375q0.625 -0.203125 1.1875 -0.203125q1.515625 0 2.203125 0.6875q0.6875 0.6875 0.6875 2.1875l0 2.5q0 0.921875 0.546875 1.21875l0 0.625q-0.75 0 -1.125 -0.21875q-0.375 -0.21875 -0.546875 -0.703125zm-0.109375 -2.625q-0.59375 -0.125 -0.828125 -0.125q-0.9375 0 -1.53125 0.484375q-0.59375 0.46875 -0.59375 1.125q0 1.09375 1.296875 1.09375q0.921875 0 1.65625 -0.890625l0 -1.6875zm3.627472 -2.578125l-0.8125 0l0 -0.96875l0.8125 0l0 -1.453125l1.234375 -0.484375l0 1.9375l1.90625 0l0 0.96875l-1.90625 0l0 3.46875q0 0.875 0.296875 1.25q0.296875 0.375 0.953125 0.375q0.46875 0 0.984375 -0.25l0.171875 1.09375q-0.765625 0.1875 -1.6875 0.1875q-0.828125 0 -1.390625 -0.609375q-0.5625 -0.609375 -0.5625 -1.546875l0 -3.96875zm6.1125183 -3.609375q0.3125 0 0.53125 0.234375q0.234375 0.21875 0.234375 0.53125q0 0.3125 -0.234375 0.546875q-0.21875 0.21875 -0.53125 0.21875q-0.3125 0 -0.546875 -0.21875q-0.21875 -0.234375 -0.21875 -0.546875q0 -0.3125 0.21875 -0.53125q0.21875 -0.234375 0.546875 -0.234375zm-0.671875 9.609375l0 -5.921875l-0.96875 0l0 -1.046875l2.203125 0l0 6.96875l-1.234375 0zm2.7380981 -3.5q0 -1.609375 0.859375 -2.59375q0.875 -1.0 2.296875 -1.0q1.5 0 2.3280945 0.953125q0.828125 0.953125 0.828125 2.640625q0 1.6875 -0.859375 2.65625q-0.8437195 0.96875 -2.2968445 0.96875q-1.484375 0 -2.328125 -0.96875q-0.828125 -0.984375 -0.828125 -2.65625zm1.296875 0q0 2.625 1.859375 2.625q0.859375 0 1.34375 -0.703125q0.49996948 -0.703125 0.49996948 -1.921875q0 -2.59375 -1.8437195 -2.59375q-0.84375 0 -1.359375 0.6875q-0.5 0.6875 -0.5 1.90625zm10.605255 3.5l0 -4.046875q0 -1.125 -0.34375 -1.5625q-0.328125 -0.453125 -1.125 -0.453125q-0.421875 0 -0.890625 0.265625q-0.453125 0.25 -0.703125 0.609375l0 5.1875l-1.234375 0l0 -6.96875l0.84375 0l0.390625 0.890625q0.625 -1.015625 2.0 -1.015625q2.296875 0 2.296875 2.78125l0 4.3125l-1.234375 0zm6.922943 -0.796875q-0.734375 0.921875 -2.265625 0.921875q-0.828125 0 -1.4375 -0.59375q-0.59375 -0.59375 -0.59375 -1.484375q0 -1.046875 0.921875 -1.78125q0.9375 -0.734375 2.375 -0.734375q0.390625 0 0.890625 0.171875q0 -1.703125 -1.515625 -1.703125q-1.15625 0 -1.78125 0.625l-0.515625 -1.03125q0.34375 -0.28125 0.96875 -0.484375q0.625 -0.203125 1.1875 -0.203125q1.515625 0 2.203125 0.6875q0.6875 0.6875 0.6875 2.1875l0 2.5q0 0.921875 0.546875 1.21875l0 0.625q-0.75 0 -1.125 -0.21875q-0.375 -0.21875 -0.546875 -0.703125zm-0.109375 -2.625q-0.59375 -0.125 -0.828125 -0.125q-0.9375 0 -1.53125 0.484375q-0.59375 0.46875 -0.59375 1.125q0 1.09375 1.296875 1.09375q0.921875 0 1.65625 -0.890625l0 -1.6875zm3.268097 1.453125l0 -7.859375l1.25 0l0 7.640625q0 0.5625 0.3125 0.890625q0.328125 0.328125 0.84375 0.328125l0 1.09375q-2.40625 0 -2.40625 -2.09375zm5.1182556 -7.640625q0.3125 0 0.53125 0.234375q0.234375 0.21875 0.234375 0.53125q0 0.3125 -0.234375 0.546875q-0.21875 0.21875 -0.53125 0.21875q-0.3125 0 -0.546875 -0.21875q-0.21875 -0.234375 -0.21875 -0.546875q0 -0.3125 0.21875 -0.53125q0.21875 -0.234375 0.546875 -0.234375zm-0.671875 9.609375l0 -5.921875l-0.96875 0l0 -1.046875l2.203125 0l0 6.96875l-1.234375 0zm4.519348 -1.109375l3.859375 0l0 1.109375l-5.796875 0l0 -0.328125l3.953125 -5.53125l-3.890625 0l0 -1.109375l5.703125 0l0 0.34375l-3.828125 5.515625zm8.935028 0.3125q-0.734375 0.921875 -2.265625 0.921875q-0.828125 0 -1.4375 -0.59375q-0.59375 -0.59375 -0.59375 -1.484375q0 -1.046875 0.921875 -1.78125q0.9375 -0.734375 2.375 -0.734375q0.390625 0 0.890625 0.171875q0 -1.703125 -1.515625 -1.703125q-1.15625 0 -1.78125 0.625l-0.515625 -1.03125q0.34375 -0.28125 0.96875 -0.484375q0.625 -0.203125 1.1875 -0.203125q1.515625 0 2.203125 0.6875q0.6875 0.6875 0.6875 2.1875l0 2.5q0 0.921875 0.546875 1.21875l0 0.625q-0.75 0 -1.125 -0.21875q-0.375 -0.21875 -0.546875 -0.703125zm-0.109375 -2.625q-0.59375 -0.125 -0.828125 -0.125q-0.9375 0 -1.53125 0.484375q-0.59375 0.46875 -0.59375 1.125q0 1.09375 1.296875 1.09375q0.921875 0 1.65625 -0.890625l0 -1.6875zm3.627472 -2.578125l-0.8125 0l0 -0.96875l0.8125 0l0 -1.453125l1.234375 -0.484375l0 1.9375l1.90625 0l0 0.96875l-1.90625 0l0 3.46875q0 0.875 0.296875 1.25q0.296875 0.375 0.953125 0.375q0.46875 0 0.984375 -0.25l0.171875 1.09375q-0.765625 0.1875 -1.6875 0.1875q-0.828125 0 -1.390625 -0.609375q-0.5625 -0.609375 -0.5625 -1.546875l0 -3.96875zm6.1125183 -3.609375q0.3125 0 0.53125 0.234375q0.234375 0.21875 0.234375 0.53125q0 0.3125 -0.234375 0.546875q-0.21875 0.21875 -0.53125 0.21875q-0.3125 0 -0.546875 -0.21875q-0.21875 -0.234375 -0.21875 -0.546875q0 -0.3125 0.21875 -0.53125q0.21875 -0.234375 0.546875 -0.234375zm-0.671875 9.609375l0 -5.921875l-0.96875 0l0 -1.046875l2.203125 0l0 6.96875l-1.234375 0zm2.7380981 -3.5q0 -1.609375 0.859375 -2.59375q0.875 -1.0 2.296875 -1.0q1.5 0 2.328125 0.953125q0.828125 0.953125 0.828125 2.640625q0 1.6875 -0.859375 2.65625q-0.84375 0.96875 -2.296875 0.96875q-1.484375 0 -2.328125 -0.96875q-0.828125 -0.984375 -0.828125 -2.65625zm1.296875 0q0 2.625 1.859375 2.625q0.859375 0 1.34375 -0.703125q0.5 -0.703125 0.5 -1.921875q0 -2.59375 -1.84375 -2.59375q-0.84375 0 -1.359375 0.6875q-0.5 0.6875 -0.5 1.90625zm10.605286 3.5l0 -4.046875q0 -1.125 -0.34375 -1.5625q-0.328125 -0.453125 -1.125 -0.453125q-0.421875 0 -0.890625 0.265625q-0.453125 0.25 -0.703125 0.609375l0 5.1875l-1.234375 0l0 -6.96875l0.84375 0l0.390625 0.890625q0.625 -1.015625 2.0 -1.015625q2.296875 0 2.296875 2.78125l0 4.3125l-1.234375 0z" fill-rule="nonzero"/><path fill="#000000" fill-opacity="0.0" d="m8.173099 93.63356l168.50394 0l0 100.18898l-168.50394 0z" fill-rule="evenodd"/><path fill="#000000" d="m68.700836 111.76168l0 3.671875l-1.3125 0l0 -9.53125q1.484375 -0.0625 1.796875 -0.0625q4.140625 0 4.140625 2.78125q0 3.203125 -3.671875 3.203125q-0.21875 0 -0.953125 -0.0625zm0 -4.6875l0 3.515625q0.828125 0.0625 0.875 0.0625q2.421875 0 2.421875 -1.90625q0 -1.734375 -2.59375 -1.734375q-0.25 0 -0.703125 0.0625zm5.5726166 4.859375q0 -1.609375 0.859375 -2.59375q0.875 -1.0 2.296875 -1.0q1.5 0 2.328125 0.953125q0.828125 0.953125 0.828125 2.640625q0 1.6875 -0.859375 2.65625q-0.84375 0.96875 -2.296875 0.96875q-1.484375 0 -2.328125 -0.96875q-0.828125 -0.984375 -0.828125 -2.65625zm1.296875 0q0 2.625 1.859375 2.625q0.859375 0 1.34375 -0.703125q0.5 -0.703125 0.5 -1.921875q0 -2.59375 -1.84375 -2.59375q-0.84375 0 -1.359375 0.6875q-0.5 0.6875 -0.5 1.90625zm10.105286 -2.28125q-0.40625 -0.28125 -0.8125 -0.28125q-0.65625 0 -1.15625 0.609375q-0.484375 0.609375 -0.484375 1.453125l0 4.0l-1.25 0l0 -6.96875l1.25 0l0 1.109375q0.671875 -1.234375 2.0 -1.234375q0.34375 0 0.96875 0.109375l-0.515625 1.203125zm1.8365173 -0.21875l-0.8125 0l0 -0.96875l0.8125 0l0 -1.453125l1.234375 -0.484375l0 1.9375l1.90625 0l0 0.96875l-1.90625 0l0 3.46875q0 0.875 0.296875 1.25q0.296875 0.375 0.953125 0.375q0.46875 0 0.984375 -0.25l0.171875 1.09375q-0.765625 0.1875 -1.6875 0.1875q-0.828125 0 -1.390625 -0.609375q-0.5625 -0.609375 -0.5625 -1.546875l0 -3.96875zm8.596893 -2.71875q-0.375 -0.125 -0.703125 -0.125q-0.5625 0 -0.9375 0.4375q-0.359375 0.421875 -0.359375 1.078125q0 0.171875 0.03125 0.359375l1.421875 0l0 1.046875l-1.421875 0l0 5.921875l-1.234375 0l0 -5.921875l-1.015625 0l0 -1.046875l1.015625 0q0 -1.328125 0.65625 -2.09375q0.65625 -0.765625 1.734375 -0.765625q0.546875 0 1.15625 0.203125l-0.34375 0.90625zm0.7077179 5.21875q0 -1.609375 0.859375 -2.59375q0.875 -1.0 2.296875 -1.0q1.5 0 2.328125 0.953125q0.828125 0.953125 0.828125 2.640625q0 1.6875 -0.859375 2.65625q-0.84375 0.96875 -2.296875 0.96875q-1.484375 0 -2.328125 -0.96875q-0.828125 -0.984375 -0.828125 -2.65625zm1.296875 0q0 2.625 1.859375 2.625q0.859375 0 1.34375 -0.703125q0.5 -0.703125 0.5 -1.921875q0 -2.59375 -1.84375 -2.59375q-0.84375 0 -1.359375 0.6875q-0.5 0.6875 -0.5 1.90625zm6.4021606 1.53125l0 -7.859375l1.25 0l0 7.640625q0 0.5625 0.3125 0.890625q0.328125 0.328125 0.84375 0.328125l0 1.09375q-2.40625 0 -2.40625 -2.09375zm5.1182556 -7.640625q0.3125 0 0.53125 0.234375q0.234375 0.21875 0.234375 0.53125q0 0.3125 -0.234375 0.546875q-0.21875 0.21875 -0.53125 0.21875q-0.3125 0 -0.546875 -0.21875q-0.21875 -0.234375 -0.21875 -0.546875q0 -0.3125 0.21875 -0.53125q0.21875 -0.234375 0.546875 -0.234375zm-0.671875 9.609375l0 -5.921875l-0.96875 0l0 -1.046875l2.203125 0l0 6.96875l-1.234375 0zm2.7380981 -3.5q0 -1.609375 0.859375 -2.59375q0.875 -1.0 2.296875 -1.0q1.5 0 2.328125 0.953125q0.828125 0.953125 0.828125 2.640625q0 1.6875 -0.859375 2.65625q-0.84375 0.96875 -2.296875 0.96875q-1.484375 0 -2.328125 -0.96875q-0.828125 -0.984375 -0.828125 -2.65625zm1.296875 0q0 2.625 1.859375 2.625q0.859375 0 1.34375 -0.703125q0.5 -0.703125 0.5 -1.921875q0 -2.59375 -1.84375 -2.59375q-0.84375 0 -1.359375 0.6875q-0.5 0.6875 -0.5 1.90625z" fill-rule="nonzero"/><path fill="#000000" d="m93.76675 131.10544q-0.9375 0.453125 -2.28125 0.453125q-1.359375 0 -2.109375 -0.796875q-0.734375 -0.8125 -0.734375 -2.28125q0 -0.7500076 0.21875 -1.2968826q0.234375 -0.5625 0.828125 -1.15625q-0.921875 -0.90625 -0.921875 -1.890625q0 -1.0 0.75 -1.703125q0.765625 -0.703125 2.015625 -0.703125q1.34375 0 2.078125 0.59375l-0.546875 1.0q-0.734375 -0.625 -1.328125 -0.625q-1.71875 0 -1.71875 1.5625q0 0.859375 0.75 1.4375l2.421875 0l0 -1.1875l1.234375 -0.484375l0 1.6875l1.625 0l0 1.046875l-1.625 0l0 2.1406326q0 0.90625 0.234375 1.234375q0.25 0.328125 0.84375 0.328125q0.34375 0 0.828125 -0.25l0.171875 1.15625q-0.6875 0.1875 -1.5625 0.1875q-0.609375 0 -1.171875 -0.453125zm-0.578125 -1.71875l0 -2.6250076l-2.625 0q-0.625 0.796875 -0.625 1.6718826q0 2.03125 1.984375 2.03125q0.890625 0 1.328125 -0.328125q-0.0625 -0.296875 -0.0625 -0.75z" fill-rule="nonzero"/><path fill="#000000" d="m46.928745 143.76169l0 3.671875l-1.3125 0l0 -9.53125q1.484375 -0.0625 1.796875 -0.0625q4.140625 0 4.140625 2.78125q0 3.203125 -3.671875 3.203125q-0.21875 0 -0.953125 -0.0625zm0 -4.6875l0 3.515625q0.828125 0.0625 0.875 0.0625q2.421875 0 2.421875 -1.90625q0 -1.734375 -2.59375 -1.734375q-0.25 0 -0.703125 0.0625zm11.900742 5.0l-5.03125 0q0 1.21875 0.671875 1.875q0.59375 0.578125 1.53125 0.578125q1.0625 0 1.765625 -0.625l0.515625 0.890625q-0.28125 0.296875 -0.875 0.5q-0.734375 0.265625 -1.65625 0.265625q-1.3125 0 -2.234375 -0.890625q-1.015625 -0.984375 -1.015625 -2.640625q0 -1.71875 1.046875 -2.765625q0.9375 -0.921875 2.21875 -0.921875q1.5 0 2.34375 0.828125q0.8125 0.8125 0.8125 2.140625q0 0.421875 -0.09375 0.765625zm-3.0 -2.703125q-0.828125 0 -1.390625 0.53125q-0.53125 0.515625 -0.609375 1.265625l3.859375 0q0 -0.75 -0.46875 -1.25q-0.5 -0.546875 -1.390625 -0.546875zm8.191174 0.28125q-0.4062462 -0.28125 -0.8124962 -0.28125q-0.65625 0 -1.15625 0.609375q-0.484375 0.609375 -0.484375 1.453125l0 4.0l-1.25 0l0 -6.96875l1.25 0l0 1.109375q0.671875 -1.234375 2.0 -1.234375q0.34375 0 0.9687462 0.109375l-0.515625 1.203125zm2.6646423 -3.828125q0.3125 0 0.53125 0.234375q0.234375 0.21875 0.234375 0.53125q0 0.3125 -0.234375 0.546875q-0.21875 0.21875 -0.53125 0.21875q-0.3125 0 -0.546875 -0.21875q-0.21875 -0.234375 -0.21875 -0.546875q0 -0.3125 0.21875 -0.53125q0.21875 -0.234375 0.546875 -0.234375zm-0.671875 9.609375l0 -5.921875l-0.96875 0l0 -1.046875l2.203125 0l0 6.96875l-1.234375 0zm2.7380981 -3.5q0 -1.609375 0.859375 -2.59375q0.875 -1.0 2.296875 -1.0q1.5 0 2.328125 0.953125q0.828125 0.953125 0.828125 2.640625q0 1.6875 -0.859375 2.65625q-0.84375 0.96875 -2.296875 0.96875q-1.484375 0 -2.328125 -0.96875q-0.828125 -0.984375 -0.828125 -2.65625zm1.296875 0q0 2.625 1.859375 2.625q0.859375 0 1.34375 -0.703125q0.5 -0.703125 0.5 -1.921875q0 -2.59375 -1.84375 -2.59375q-0.84375 0 -1.359375 0.6875q-0.5 0.6875 -0.5 1.90625zm10.730286 3.5l0 -0.515625q-0.640625 0.640625 -1.875 0.640625q-1.3125 0 -2.125 -0.9375q-0.8125 -0.9375 -0.8125 -2.5q0 -1.5625 0.9375 -2.671875q0.9375 -1.109375 2.234375 -1.109375q1.078125 0 1.640625 0.5l0 -3.234375l1.234375 0l0 9.828125l-1.234375 0zm0 -5.359375q-0.46875 -0.703125 -1.28125 -0.703125q-1.0 0 -1.609375 0.75q-0.609375 0.734375 -0.609375 1.890625q0 2.515625 2.28125 2.515625q0.296875 0 0.703125 -0.1875q0.40625 -0.1875 0.515625 -0.390625l0 -3.875zm4.2848663 -4.25q0.3125 0 0.53125 0.234375q0.234375 0.21875 0.234375 0.53125q0 0.3125 -0.234375 0.546875q-0.21875 0.21875 -0.53125 0.21875q-0.3125 0 -0.546875 -0.21875q-0.21875 -0.234375 -0.21875 -0.546875q0 -0.3125 0.21875 -0.53125q0.21875 -0.234375 0.546875 -0.234375zm-0.671875 9.609375l0 -5.921875l-0.96875 0l0 -1.046875l2.203125 0l0 6.96875l-1.234375 0zm8.456848 -6.40625l-0.609375 0.875q-0.1875 -0.1875 -0.671875 -0.359375q-0.484375 -0.171875 -0.9375 -0.171875q-1.015625 0 -1.609375 0.71875q-0.59375 0.703125 -0.59375 1.921875q0 1.234375 0.609375 1.875q0.609375 0.640625 1.6875 0.640625q0.828125 0 1.671875 -0.65625l0.484375 1.046875q-0.984375 0.640625 -2.46875 0.640625q-1.421875 0 -2.359375 -0.953125q-0.921875 -0.953125 -0.921875 -2.59375q0 -1.65625 0.96875 -2.65625q0.96875 -1.015625 2.640625 -1.015625q0.546875 0 1.171875 0.234375q0.640625 0.21875 0.9375 0.453125zm14.364349 7.109375l-0.1875 1.265625q-3.421875 0 -4.484375 -1.890625q-0.1875 0.078125 -0.859375 0.078125q-1.796875 0 -2.828125 -1.40625q-1.015625 -1.40625 -1.015625 -3.59375q0 -2.0625 1.03125 -3.453125q1.046875 -1.40625 2.8125 -1.40625q1.984375 0 3.03125 1.28125q1.0625 1.28125 1.0625 3.578125q0 3.28125 -1.953125 4.5q0.703125 1.046875 2.375 1.046875l1.015625 0zm-5.53125 -9.234375q-1.203125 0 -1.84375 1.0q-0.625 0.984375 -0.625 2.6875q0 1.640625 0.640625 2.734375q0.65625 1.09375 1.828125 1.09375q1.34375 0 2.03125 -1.015625q0.703125 -1.015625 0.703125 -2.8125q0 -3.6875 -2.734375 -3.6875zm6.694397 1.5625l0 4.4375q0 1.625 1.40625 1.625q0.609375 0 1.109375 -0.34375q0.515625 -0.359375 0.671875 -0.828125l0 -4.890625l1.234375 0l0 6.96875l-1.234375 0l0 -0.96875q-0.203125 0.421875 -0.828125 0.765625q-0.625 0.328125 -1.234375 0.328125q-1.140625 0 -1.75 -0.65625q-0.609375 -0.65625 -0.609375 -1.859375l0 -4.578125l1.234375 0zm10.047943 6.171875q-0.734375 0.921875 -2.265625 0.921875q-0.828125 0 -1.4375 -0.59375q-0.59375 -0.59375 -0.59375 -1.484375q0 -1.046875 0.921875 -1.78125q0.9375 -0.734375 2.375 -0.734375q0.390625 0 0.890625 0.171875q0 -1.703125 -1.515625 -1.703125q-1.15625 0 -1.78125 0.625l-0.515625 -1.03125q0.34375 -0.28125 0.96875 -0.484375q0.625 -0.203125 1.1875 -0.203125q1.515625 0 2.203125 0.6875q0.6875 0.6875 0.6875 2.1875l0 2.5q0 0.921875 0.546875 1.21875l0 0.625q-0.75 0 -1.125 -0.21875q-0.375 -0.21875 -0.546875 -0.703125zm-0.109375 -2.625q-0.59375 -0.125 -0.828125 -0.125q-0.9375 0 -1.53125 0.484375q-0.59375 0.46875 -0.59375 1.125q0 1.09375 1.296875 1.09375q0.921875 0 1.65625 -0.890625l0 -1.6875zm3.268097 1.453125l0 -7.859375l1.25 0l0 7.640625q0 0.5625 0.3125 0.890625q0.328125 0.328125 0.84375 0.328125l0 1.09375q-2.40625 0 -2.40625 -2.09375zm5.1182556 -7.640625q0.3125 0 0.53125 0.234375q0.234375 0.21875 0.234375 0.53125q0 0.3125 -0.234375 0.546875q-0.21875 0.21875 -0.53125 0.21875q-0.3125 0 -0.546875 -0.21875q-0.21875 -0.234375 -0.21875 -0.546875q0 -0.3125 0.21875 -0.53125q0.21875 -0.234375 0.546875 -0.234375zm-0.671875 9.609375l0 -5.921875l-0.96875 0l0 -1.046875l2.203125 0l0 6.96875l-1.234375 0zm3.6443481 -6.0l-0.8125 0l0 -0.96875l0.8125 0l0 -1.453125l1.234375 -0.484375l0 1.9375l1.90625 0l0 0.96875l-1.90625 0l0 3.46875q0 0.875 0.296875 1.25q0.296875 0.375 0.953125 0.375q0.46875 0 0.984375 -0.25l0.171875 1.09375q-0.765625 0.1875 -1.6875 0.1875q-0.828125 0 -1.390625 -0.609375q-0.5625 -0.609375 -0.5625 -1.546875l0 -3.96875zm7.5031433 7.1875q-0.25 0.65625 -1.03125 1.09375q-0.765625 0.453125 -1.703125 0.453125l0 -1.109375q0.765625 0 1.3125 -0.359375q0.5625 -0.359375 0.5625 -0.875q0 -0.578125 -0.203125 -1.125q-0.203125 -0.5625 -0.515625 -1.390625l-1.890625 -4.84375l1.265625 0l2.046875 5.390625l1.84375 -5.390625l1.265625 0l-2.953125 8.15625z" fill-rule="nonzero"/><path fill="#000000" d="m65.01051 163.43356l-0.65625 -2.015625l-3.5468712 0l-0.703125 2.015625l-1.453125 0l3.859375 -9.671875l0.359375 0l3.5781212 9.671875l-1.4375 0zm-2.3749962 -7.171875l-1.484375 4.203125l2.828125 0l-1.34375 -4.203125zm4.2677574 6.75l0.4375 -1.171875q1.03125 0.6875 1.671875 0.6875q1.140625 0 1.140625 -0.96875q0 -0.6875 -1.109375 -1.1875q-0.84375 -0.390625 -1.140625 -0.59375q-0.296875 -0.203125 -0.515625 -0.453125q-0.21875 -0.25 -0.328125 -0.546875q-0.109375 -0.296875 -0.109375 -0.625q0 -0.859375 0.625 -1.328125q0.625 -0.484375 1.640625 -0.484375q0.75 0 1.90625 0.46875l-0.34375 1.15625q-0.734375 -0.59375 -1.484375 -0.59375q-0.4375 0 -0.75 0.21875q-0.296875 0.203125 -0.296875 0.515625q0 0.671875 0.765625 1.015625l0.890625 0.40625q0.8125 0.375 1.171875 0.859375q0.375 0.46875 0.375 1.171875q0 0.9375 -0.65625 1.46875q-0.65625 0.53125 -1.8125 0.53125q-1.109375 0 -2.078125 -0.546875zm5.395035 0l0.4375 -1.171875q1.03125 0.6875 1.671875 0.6875q1.140625 0 1.140625 -0.96875q0 -0.6875 -1.109375 -1.1875q-0.84375 -0.390625 -1.140625 -0.59375q-0.296875 -0.203125 -0.515625 -0.453125q-0.21875 -0.25 -0.328125 -0.546875q-0.109375 -0.296875 -0.109375 -0.625q0 -0.859375 0.625 -1.328125q0.625 -0.484375 1.640625 -0.484375q0.75 0 1.90625 0.46875l-0.34375 1.15625q-0.734375 -0.59375 -1.484375 -0.59375q-0.4375 0 -0.75 0.21875q-0.296875 0.203125 -0.296875 0.515625q0 0.671875 0.765625 1.015625l0.890625 0.40625q0.8125 0.375 1.171875 0.859375q0.375 0.46875 0.375 1.171875q0 0.9375 -0.65625 1.46875q-0.65625 0.53125 -1.8125 0.53125q-1.109375 0 -2.078125 -0.546875zm11.72316 -2.9375l-5.03125 0q0 1.21875 0.671875 1.875q0.59375 0.578125 1.53125 0.578125q1.0625 0 1.765625 -0.625l0.515625 0.890625q-0.28125 0.296875 -0.875 0.5q-0.734375 0.265625 -1.65625 0.265625q-1.3125 0 -2.234375 -0.890625q-1.015625 -0.984375 -1.015625 -2.640625q0 -1.71875 1.046875 -2.765625q0.9375 -0.921875 2.21875 -0.921875q1.5 0 2.34375 0.828125q0.8125 0.8125 0.8125 2.140625q0 0.421875 -0.09375 0.765625zm-3.0 -2.703125q-0.828125 0 -1.390625 0.53125q-0.53125 0.515625 -0.609375 1.265625l3.859375 0q0 -0.75 -0.46875 -1.25q-0.5 -0.546875 -1.390625 -0.546875zm3.9411774 5.640625l0.4375 -1.171875q1.03125 0.6875 1.671875 0.6875q1.140625 0 1.140625 -0.96875q0 -0.6875 -1.109375 -1.1875q-0.84375 -0.390625 -1.140625 -0.59375q-0.296875 -0.203125 -0.515625 -0.453125q-0.21875 -0.25 -0.328125 -0.546875q-0.109375 -0.296875 -0.109375 -0.625q0 -0.859375 0.625 -1.328125q0.625 -0.484375 1.640625 -0.484375q0.75 0 1.90625 0.46875l-0.34375 1.15625q-0.734375 -0.59375 -1.484375 -0.59375q-0.4375 0 -0.75 0.21875q-0.296875 0.203125 -0.296875 0.515625q0 0.671875 0.765625 1.015625l0.890625 0.40625q0.8125 0.375 1.171875 0.859375q0.375 0.46875 0.375 1.171875q0 0.9375 -0.65625 1.46875q-0.65625 0.53125 -1.8125 0.53125q-1.109375 0 -2.078125 -0.546875zm5.395035 0l0.4375 -1.171875q1.03125 0.6875 1.671875 0.6875q1.140625 0 1.140625 -0.96875q0 -0.6875 -1.109375 -1.1875q-0.84375 -0.390625 -1.140625 -0.59375q-0.296875 -0.203125 -0.515625 -0.453125q-0.21875 -0.25 -0.328125 -0.546875q-0.109375 -0.296875 -0.109375 -0.625q0 -0.859375 0.625 -1.328125q0.625 -0.484375 1.640625 -0.484375q0.75 0 1.90625 0.46875l-0.34375 1.15625q-0.734375 -0.59375 -1.484375 -0.59375q-0.4375 0 -0.75 0.21875q-0.296875 0.203125 -0.296875 0.515625q0 0.671875 0.765625 1.015625l0.890625 0.40625q0.8125 0.375 1.171875 0.859375q0.375 0.46875 0.375 1.171875q0 0.9375 -0.65625 1.46875q-0.65625 0.53125 -1.8125 0.53125q-1.109375 0 -2.078125 -0.546875zm13.926285 0.421875l0 -4.40625q0 -1.65625 -1.4375 -1.65625q-0.4375 0 -0.828125 0.28125q-0.390625 0.28125 -0.53125 0.625l0 5.15625l-1.25 0l0 -4.953125q0 -0.515625 -0.390625 -0.8125q-0.375 -0.296875 -1.015625 -0.296875q-0.375 0 -0.796875 0.296875q-0.40625 0.28125 -0.59375 0.625l0 5.140625l-1.234375 0l0 -6.96875l0.8125 0l0.40625 0.8125q0.71875 -0.9375 1.796875 -0.9375q1.484375 0 2.09375 0.921875q0.203125 -0.390625 0.765625 -0.65625q0.578125 -0.265625 1.171875 -0.265625q1.078125 0 1.671875 0.640625q0.59375 0.640625 0.59375 1.796875l0 4.65625l-1.234375 0zm8.86026 -3.359375l-5.03125 0q0 1.21875 0.671875 1.875q0.59375 0.578125 1.53125 0.578125q1.0625 0 1.765625 -0.625l0.515625 0.890625q-0.28125 0.296875 -0.875 0.5q-0.734375 0.265625 -1.65625 0.265625q-1.3125 0 -2.234375 -0.890625q-1.015625 -0.984375 -1.015625 -2.640625q0 -1.71875 1.046875 -2.765625q0.9375 -0.921875 2.21875 -0.921875q1.5 0 2.34375 0.828125q0.8125 0.8125 0.8125 2.140625q0 0.421875 -0.09375 0.765625zm-3.0 -2.703125q-0.828125 0 -1.390625 0.53125q-0.53125 0.515625 -0.609375 1.265625l3.859375 0q0 -0.75 -0.46875 -1.25q-0.5 -0.546875 -1.390625 -0.546875zm8.691177 6.0625l0 -4.046875q0 -1.125 -0.34375 -1.5625q-0.328125 -0.453125 -1.125 -0.453125q-0.421875 0 -0.890625 0.265625q-0.453125 0.25 -0.703125 0.609375l0 5.1875l-1.234375 0l0 -6.96875l0.84375 0l0.390625 0.890625q0.625 -1.015625 2.0 -1.015625q2.296875 0 2.296875 2.78125l0 4.3125l-1.234375 0zm3.438568 -6.0l-0.8125 0l0 -0.96875l0.8125 0l0 -1.453125l1.234375 -0.484375l0 1.9375l1.90625 0l0 0.96875l-1.90625 0l0 3.46875q0 0.875 0.296875 1.25q0.296875 0.375 0.953125 0.375q0.46875 0 0.984375 -0.25l0.171875 1.09375q-0.765625 0.1875 -1.6875 0.1875q-0.828125 0 -1.390625 -0.609375q-0.5625 -0.609375 -0.5625 -1.546875l0 -3.96875z" fill-rule="nonzero"/><path fill="#000000" fill-opacity="0.0" d="m284.13123 114.02852l111.275604 0l0 51.716537l-111.275604 0z" fill-rule="evenodd"/><path fill="#000000" d="m296.8325 135.82852l0 -9.531258l1.296875 0l0 9.531258l-1.296875 0zm7.6782227 0l0 -4.046875q0 -1.125 -0.34375 -1.5625q-0.328125 -0.453125 -1.125 -0.453125q-0.421875 0 -0.890625 0.265625q-0.453125 0.25 -0.703125 0.609375l0 5.1875l-1.234375 0l0 -6.96875l0.84375 0l0.390625 0.890625q0.625 -1.015625 2.0 -1.015625q2.296875 0 2.296875 2.78125l0 4.3125l-1.234375 0zm4.266693 -9.609383q0.3125 0 0.53125 0.234375q0.234375 0.21875 0.234375 0.53125q0 0.3125 -0.234375 0.546875q-0.21875 0.21875 -0.53125 0.21875q-0.3125 0 -0.546875 -0.21875q-0.21875 -0.234375 -0.21875 -0.546875q0 -0.3125 0.21875 -0.53125q0.21875 -0.234375 0.546875 -0.234375zm-0.671875 9.609383l0 -5.921875l-0.96875 0l0 -1.046875l2.203125 0l0 6.96875l-1.234375 0zm3.6443481 -6.0l-0.8125 0l0 -0.96875l0.8125 0l0 -1.4531326l1.234375 -0.484375l0 1.9375076l1.90625 0l0 0.96875l-1.90625 0l0 3.46875q0 0.875 0.296875 1.25q0.296875 0.375 0.953125 0.375q0.46875 0 0.984375 -0.25l0.171875 1.09375q-0.765625 0.1875 -1.6875 0.1875q-0.828125 0 -1.390625 -0.609375q-0.5625 -0.609375 -0.5625 -1.546875l0 -3.96875zm6.1125183 -3.6093826q0.3125 0 0.53125 0.234375q0.234375 0.21875 0.234375 0.53125q0 0.3125 -0.234375 0.546875q-0.21875 0.21875 -0.53125 0.21875q-0.3125 0 -0.546875 -0.21875q-0.21875 -0.234375 -0.21875 -0.546875q0 -0.3125 0.21875 -0.53125q0.21875 -0.234375 0.546875 -0.234375zm-0.671875 9.609383l0 -5.921875l-0.96875 0l0 -1.046875l2.203125 0l0 6.96875l-1.234375 0zm7.128723 -0.796875q-0.734375 0.921875 -2.265625 0.921875q-0.828125 0 -1.4375 -0.59375q-0.59375 -0.59375 -0.59375 -1.484375q0 -1.046875 0.921875 -1.78125q0.9375 -0.734375 2.375 -0.734375q0.390625 0 0.890625 0.171875q0 -1.703125 -1.515625 -1.703125q-1.15625 0 -1.78125 0.625l-0.515625 -1.03125q0.34375 -0.28125 0.96875 -0.484375q0.625 -0.203125 1.1875 -0.203125q1.515625 0 2.203125 0.6875q0.6875 0.6875 0.6875 2.1875l0 2.5q0 0.921875 0.546875 1.21875l0 0.625q-0.75 0 -1.125 -0.21875q-0.375 -0.21875 -0.546875 -0.703125zm-0.109375 -2.625q-0.59375 -0.125 -0.828125 -0.125q-0.9375 0 -1.53125 0.484375q-0.59375 0.46875 -0.59375 1.125q0 1.09375 1.296875 1.09375q0.921875 0 1.65625 -0.890625l0 -1.6875zm3.268097 1.453125l0 -7.8593826l1.25 0l0 7.6406326q0 0.5625 0.3125 0.890625q0.328125 0.328125 0.84375 0.328125l0 1.09375q-2.40625 0 -2.40625 -2.09375zm9.258636 -1.703125l0 3.671875l-1.3125 0l0 -9.531258q1.484375 -0.0625 1.796875 -0.0625q4.140625 0 4.140625 2.7812576q0 3.203125 -3.671875 3.203125q-0.21875 0 -0.953125 -0.0625zm0 -4.6875076l0 3.5156326q0.828125 0.0625 0.875 0.0625q2.421875 0 2.421875 -1.90625q0 -1.7343826 -2.59375 -1.7343826q-0.25 0 -0.703125 0.0625zm9.822601 2.5781326q-0.40625 -0.28125 -0.8125 -0.28125q-0.65625 0 -1.15625 0.609375q-0.484375 0.609375 -0.484375 1.453125l0 4.0l-1.25 0l0 -6.96875l1.25 0l0 1.109375q0.671875 -1.234375 2.0 -1.234375q0.34375 0 0.96875 0.109375l-0.515625 1.203125zm0.93026733 2.28125q0 -1.609375 0.859375 -2.59375q0.875 -1.0 2.296875 -1.0q1.5 0 2.328125 0.953125q0.828125 0.953125 0.828125 2.640625q0 1.6875 -0.859375 2.65625q-0.84375 0.96875 -2.296875 0.96875q-1.484375 0 -2.328125 -0.96875q-0.828125 -0.984375 -0.828125 -2.65625zm1.296875 0q0 2.625 1.859375 2.625q0.859375 0 1.34375 -0.703125q0.5 -0.703125 0.5 -1.921875q0 -2.59375 -1.84375 -2.59375q-0.84375 0 -1.359375 0.6875q-0.5 0.6875 -0.5 1.90625zm7.3709106 3.0l-0.4375 0.625l-0.625 0l0 -9.953133l1.234375 0l0 3.3750076q0.1875 -0.25 0.671875 -0.4375q0.484375 -0.203125 0.953125 -0.203125q1.421875 0 2.3125 0.984375q0.890625 0.984375 0.890625 2.5q0 1.734375 -0.890625 2.734375q-0.890625 1.0 -2.421875 1.0q-0.484375 0 -0.96875 -0.171875q-0.46875 -0.1875 -0.71875 -0.453125zm0.171875 -5.015625l0 4.03125q0 0.09375 0.46875 0.34375q0.46875 0.234375 0.703125 0.234375q1.265625 0 1.8125 -0.609375q0.546875 -0.609375 0.546875 -2.03125q0 -1.1875 -0.640625 -1.84375q-0.640625 -0.671875 -1.71875 -0.671875q-0.234375 0 -0.640625 0.203125q-0.40625 0.1875 -0.53125 0.34375zm6.2848816 3.546875l0 -7.8593826l1.25 0l0 7.6406326q0 0.5625 0.3125 0.890625q0.328125 0.328125 0.84375 0.328125l0 1.09375q-2.40625 0 -2.40625 -2.09375zm9.712006 -1.390625l-5.03125 0q0 1.21875 0.671875 1.875q0.59375 0.578125 1.53125 0.578125q1.0625 0 1.765625 -0.625l0.515625 0.890625q-0.28125 0.296875 -0.875 0.5q-0.734375 0.265625 -1.65625 0.265625q-1.3125 0 -2.234375 -0.890625q-1.015625 -0.984375 -1.015625 -2.640625q0 -1.71875 1.046875 -2.765625q0.9375 -0.921875 2.21875 -0.921875q1.5 0 2.34375 0.828125q0.8125 0.8125 0.8125 2.140625q0 0.421875 -0.09375 0.765625zm-3.0 -2.703125q-0.828125 0 -1.390625 0.53125q-0.53125 0.515625 -0.609375 1.265625l3.859375 0q0 -0.75 -0.46875 -1.25q-0.5 -0.546875 -1.390625 -0.546875zm12.472412 6.0625l0 -4.40625q0 -1.65625 -1.4375 -1.65625q-0.4375 0 -0.828125 0.28125q-0.390625 0.28125 -0.53125 0.625l0 5.15625l-1.25 0l0 -4.953125q0 -0.515625 -0.390625 -0.8125q-0.375 -0.296875 -1.015625 -0.296875q-0.375 0 -0.796875 0.296875q-0.40625 0.28125 -0.59375 0.625l0 5.140625l-1.234375 0l0 -6.96875l0.8125 0l0.40625 0.8125q0.71875 -0.9375 1.796875 -0.9375q1.484375 0 2.09375 0.921875q0.203125 -0.390625 0.765625 -0.65625q0.578125 -0.265625 1.171875 -0.265625q1.078125 0 1.671875 0.640625q0.59375 0.640625 0.59375 1.796875l0 4.65625l-1.234375 0z" fill-rule="nonzero"/><path fill="#000000" d="m310.84827 143.46915l0 2.640625l3.140625 0l0 1.109375l-3.140625 0l0 3.4375l4.3125 0l0 1.171875l-5.625 0l0 -9.53125l5.703125 0l0 1.171875l-4.390625 0zm8.248505 8.484375l-0.328125 0l-2.984375 -7.109375l1.359375 0l1.84375 4.875l1.875 -4.875l1.296875 0l-3.0625 7.109375zm7.94928 -0.921875q-0.734375 0.921875 -2.265625 0.921875q-0.828125 0 -1.4375 -0.59375q-0.59375 -0.59375 -0.59375 -1.484375q0 -1.046875 0.921875 -1.78125q0.9375 -0.734375 2.375 -0.734375q0.390625 0 0.890625 0.171875q0 -1.703125 -1.515625 -1.703125q-1.15625 0 -1.78125 0.625l-0.515625 -1.03125q0.34375 -0.28125 0.96875 -0.484375q0.625 -0.203125 1.1875 -0.203125q1.515625 0 2.203125 0.6875q0.6875 0.6875 0.6875 2.1875l0 2.5q0 0.921875 0.546875 1.21875l0 0.625q-0.75 0 -1.125 -0.21875q-0.375 -0.21875 -0.546875 -0.703125zm-0.109375 -2.625q-0.59375 -0.125 -0.828125 -0.125q-0.9375 0 -1.53125 0.484375q-0.59375 0.46875 -0.59375 1.125q0 1.09375 1.296875 1.09375q0.921875 0 1.65625 -0.890625l0 -1.6875zm3.268097 1.453125l0 -7.859375l1.25 0l0 7.640625q0 0.5625 0.3125 0.890625q0.328125 0.328125 0.84375 0.328125l0 1.09375q-2.40625 0 -2.40625 -2.09375zm5.0088806 -5.0l0 4.4375q0 1.625 1.40625 1.625q0.609375 0 1.109375 -0.34375q0.515625 -0.359375 0.671875 -0.828125l0 -4.890625l1.234375 0l0 6.96875l-1.234375 0l0 -0.96875q-0.203125 0.421875 -0.828125 0.765625q-0.625 0.328125 -1.234375 0.328125q-1.140625 0 -1.75 -0.65625q-0.609375 -0.65625 -0.609375 -1.859375l0 -4.578125l1.234375 0zm10.047943 6.171875q-0.734375 0.921875 -2.265625 0.921875q-0.828125 0 -1.4375 -0.59375q-0.59375 -0.59375 -0.59375 -1.484375q0 -1.046875 0.921875 -1.78125q0.9375 -0.734375 2.375 -0.734375q0.390625 0 0.890625 0.171875q0 -1.703125 -1.515625 -1.703125q-1.15625 0 -1.78125 0.625l-0.515625 -1.03125q0.34375 -0.28125 0.96875 -0.484375q0.625 -0.203125 1.1875 -0.203125q1.515625 0 2.203125 0.6875q0.6875 0.6875 0.6875 2.1875l0 2.5q0 0.921875 0.546875 1.21875l0 0.625q-0.75 0 -1.125 -0.21875q-0.375 -0.21875 -0.546875 -0.703125zm-0.109375 -2.625q-0.59375 -0.125 -0.828125 -0.125q-0.9375 0 -1.53125 0.484375q-0.59375 0.46875 -0.59375 1.125q0 1.09375 1.296875 1.09375q0.921875 0 1.65625 -0.890625l0 -1.6875zm3.627472 -2.578125l-0.8125 0l0 -0.96875l0.8125 0l0 -1.453125l1.234375 -0.484375l0 1.9375l1.90625 0l0 0.96875l-1.90625 0l0 3.46875q0 0.875 0.296875 1.25q0.296875 0.375 0.953125 0.375q0.46875 0 0.984375 -0.25l0.171875 1.09375q-0.765625 0.1875 -1.6875 0.1875q-0.828125 0 -1.390625 -0.609375q-0.5625 -0.609375 -0.5625 -1.546875l0 -3.96875zm6.1125183 -3.609375q0.3125 0 0.53125 0.234375q0.234375 0.21875 0.234375 0.53125q0 0.3125 -0.234375 0.546875q-0.21875 0.21875 -0.53125 0.21875q-0.3125 0 -0.546875 -0.21875q-0.21875 -0.234375 -0.21875 -0.546875q0 -0.3125 0.21875 -0.53125q0.21875 -0.234375 0.546875 -0.234375zm-0.671875 9.609375l0 -5.921875l-0.96875 0l0 -1.046875l2.203125 0l0 6.96875l-1.234375 0zm2.7380981 -3.5q0 -1.609375 0.859375 -2.59375q0.875 -1.0 2.296875 -1.0q1.5 0 2.328125 0.953125q0.828125 0.953125 0.828125 2.640625q0 1.6875 -0.859375 2.65625q-0.84375 0.96875 -2.296875 0.96875q-1.484375 0 -2.328125 -0.96875q-0.828125 -0.984375 -0.828125 -2.65625zm1.296875 0q0 2.625 1.859375 2.625q0.859375 0 1.34375 -0.703125q0.5 -0.703125 0.5 -1.921875q0 -2.59375 -1.84375 -2.59375q-0.84375 0 -1.359375 0.6875q-0.5 0.6875 -0.5 1.90625zm10.605286 3.5l0 -4.046875q0 -1.125 -0.34375 -1.5625q-0.328125 -0.453125 -1.125 -0.453125q-0.421875 0 -0.890625 0.265625q-0.453125 0.25 -0.703125 0.609375l0 5.1875l-1.234375 0l0 -6.96875l0.84375 0l0.390625 0.890625q0.625 -1.015625 2.0 -1.015625q2.296875 0 2.296875 2.78125l0 4.3125l-1.234375 0z" fill-rule="nonzero"/><path fill="#000000" fill-opacity="0.0" d="m155.76758 325.2968l117.700775 0l0 51.716522l-117.700775 0z" fill-rule="evenodd"/><path fill="#000000" d="m188.59319 346.6593l0.46875 -1.203125q0.375 0.28125 0.90625 0.453125q0.546875 0.171875 0.984375 0.171875q0.75 0 1.21875 -0.40625q0.46875 -0.421875 0.46875 -1.0625q0 -0.484375 -0.265625 -0.890625q-0.25 -0.421875 -1.28125 -0.90625l-0.78125 -0.359375q-0.96875 -0.453125 -1.359375 -1.078125q-0.390625 -0.625 -0.390625 -1.5q0 -1.078125 0.75 -1.78125q0.765625 -0.703125 1.953125 -0.703125q1.578125 0 2.203125 0.515625l-0.390625 1.140625q-0.265625 -0.1875 -0.796875 -0.359375q-0.53125 -0.1875 -0.984375 -0.1875q-0.671875 0 -1.046875 0.390625q-0.375 0.375 -0.375 0.953125q0 0.375 0.125 0.671875q0.140625 0.296875 0.375 0.5q0.25 0.203125 1.015625 0.5625l0.78125 0.375q0.96875 0.46875 1.359375 1.109375q0.40625 0.640625 0.40625 1.625q0 1.078125 -0.875 1.828125q-0.859375 0.734375 -2.296875 0.734375q-1.28125 0 -2.171875 -0.59375zm6.285263 -3.0625q0 -1.609375 0.859375 -2.59375q0.875 -1.0 2.296875 -1.0q1.5 0 2.328125 0.953125q0.828125 0.953125 0.828125 2.640625q0 1.6875 -0.859375 2.65625q-0.84375 0.96875 -2.296875 0.96875q-1.484375 0 -2.328125 -0.96875q-0.828125 -0.984375 -0.828125 -2.65625zm1.296875 0q0 2.625 1.859375 2.625q0.859375 0 1.34375 -0.703125q0.5 -0.703125 0.5 -1.921875q0 -2.59375 -1.84375 -2.59375q-0.84375 0 -1.359375 0.6875q-0.5 0.6875 -0.5 1.90625zm10.074036 -5.21875q-0.375 -0.125 -0.703125 -0.125q-0.5625 0 -0.9375 0.4375q-0.359375 0.421875 -0.359375 1.078125q0 0.171875 0.03125 0.359375l1.421875 0l0 1.046875l-1.421875 0l0 5.921875l-1.234375 0l0 -5.921875l-1.015625 0l0 -1.046875l1.015625 0q0 -1.328125 0.65625 -2.09375q0.65625 -0.765625 1.734375 -0.765625q0.546875 0 1.15625 0.203125l-0.34375 0.90625zm1.6139679 2.71875l-0.8125 0l0 -0.96875l0.8125 0l0 -1.453125l1.234375 -0.484375l0 1.9375l1.90625 0l0 0.96875l-1.90625 0l0 3.46875q0 0.875 0.296875 1.25q0.296875 0.375 0.953125 0.375q0.46875 0 0.984375 -0.25l0.171875 1.09375q-0.765625 0.1875 -1.6875 0.1875q-0.828125 0 -1.390625 -0.609375q-0.5625 -0.609375 -0.5625 -1.546875l0 -3.96875zm11.284393 6.125l-0.328125 0l-2.046875 -4.734375l-2.03125 4.734375l-0.328125 0l-2.5 -7.109375l1.328125 0l1.484375 4.5625l1.859375 -4.5625l0.328125 0l1.90625 4.5625l1.609375 -4.5625l1.21875 0l-2.5 7.109375zm7.4023743 -0.921875q-0.734375 0.921875 -2.265625 0.921875q-0.828125 0 -1.4375 -0.59375q-0.59375 -0.59375 -0.59375 -1.484375q0 -1.046875 0.921875 -1.78125q0.9375 -0.734375 2.375 -0.734375q0.390625 0 0.890625 0.171875q0 -1.703125 -1.515625 -1.703125q-1.15625 0 -1.78125 0.625l-0.515625 -1.03125q0.34375 -0.28125 0.96875 -0.484375q0.625 -0.203125 1.1875 -0.203125q1.515625 0 2.203125 0.6875q0.6875 0.6875 0.6875 2.1875l0 2.5q0 0.921875 0.546875 1.21875l0 0.625q-0.75 0 -1.125 -0.21875q-0.375 -0.21875 -0.546875 -0.703125zm-0.109375 -2.625q-0.59375 -0.125 -0.828125 -0.125q-0.9375 0 -1.53125 0.484375q-0.59375 0.46875 -0.59375 1.125q0 1.09375 1.296875 1.09375q0.921875 0 1.65625 -0.890625l0 -1.6875zm6.971222 -2.359375q-0.40625 -0.28125 -0.8125 -0.28125q-0.65625 0 -1.15625 0.609375q-0.484375 0.609375 -0.484375 1.453125l0 4.0l-1.25 0l0 -6.96875l1.25 0l0 1.109375q0.671875 -1.234375 2.0 -1.234375q0.34375 0 0.96875 0.109375l-0.515625 1.203125zm7.2583923 2.421875l-5.03125 0q0 1.21875 0.671875 1.875q0.59375 0.578125 1.53125 0.578125q1.0625 0 1.765625 -0.625l0.515625 0.890625q-0.28125 0.296875 -0.875 0.5q-0.734375 0.265625 -1.65625 0.265625q-1.3125 0 -2.234375 -0.890625q-1.015625 -0.984375 -1.015625 -2.640625q0 -1.71875 1.046875 -2.765625q0.9375 -0.921875 2.21875 -0.921875q1.5 0 2.34375 0.828125q0.8125 0.8125 0.8125 2.140625q0 0.421875 -0.09375 0.765625zm-3.0 -2.703125q-0.828125 0 -1.390625 0.53125q-0.53125 0.515625 -0.609375 1.265625l3.859375 0q0 -0.75 -0.46875 -1.25q-0.5 -0.546875 -1.390625 -0.546875z" fill-rule="nonzero"/><path fill="#000000" d="m178.18475 363.0968l-1.921875 0l0 -9.53125q1.84375 -0.0625 2.359375 -0.0625q2.0 0 3.15625 1.21875q1.171875 1.203125 1.171875 3.21875q0 5.15625 -4.765625 5.15625zm-0.609375 -8.359375l0 7.125q0.4375 0.0625 1.078125 0.0625q1.359375 0 2.140625 -1.015625q0.78125 -1.03125 0.78125 -2.859375q0 -3.375 -3.03125 -3.375q-0.1875 0 -0.96875 0.0625zm12.642639 5.0l-5.03125 0q0 1.21875 0.671875 1.875q0.59375 0.578125 1.53125 0.578125q1.0625 0 1.765625 -0.625l0.515625 0.890625q-0.28125 0.296875 -0.875 0.5q-0.734375 0.265625 -1.65625 0.265625q-1.3125 0 -2.234375 -0.890625q-1.015625 -0.984375 -1.015625 -2.640625q0 -1.71875 1.046875 -2.765625q0.9375 -0.921875 2.21875 -0.921875q1.5 0 2.34375 0.828125q0.8125 0.8125 0.8125 2.140625q0 0.421875 -0.09375 0.765625zm-3.0 -2.703125q-0.828125 0 -1.390625 0.53125q-0.53125 0.515625 -0.609375 1.265625l3.859375 0q0 -0.75 -0.46875 -1.25q-0.5 -0.546875 -1.390625 -0.546875zm6.9099274 6.1875l-0.328125 0l-2.984375 -7.109375l1.359375 0l1.84375 4.875l1.875 -4.875l1.296875 0l-3.0625 7.109375zm9.88678 -3.484375l-5.03125 0q0 1.21875 0.671875 1.875q0.59375 0.578125 1.53125 0.578125q1.0625 0 1.765625 -0.625l0.515625 0.890625q-0.28125 0.296875 -0.875 0.5q-0.734375 0.265625 -1.65625 0.265625q-1.3125 0 -2.234375 -0.890625q-1.015625 -0.984375 -1.015625 -2.640625q0 -1.71875 1.046875 -2.765625q0.9375 -0.921875 2.21875 -0.921875q1.5 0 2.34375 0.828125q0.8125 0.8125 0.8125 2.140625q0 0.421875 -0.09375 0.765625zm-3.0 -2.703125q-0.828125 0 -1.390625 0.53125q-0.53125 0.515625 -0.609375 1.265625l3.859375 0q0 -0.75 -0.46875 -1.25q-0.5 -0.546875 -1.390625 -0.546875zm4.4880524 4.09375l0 -7.859375l1.25 0l0 7.640625q0 0.5625 0.3125 0.890625q0.328125 0.328125 0.84375 0.328125l0 1.09375q-2.40625 0 -2.40625 -2.09375zm3.3838806 -1.53125q0 -1.609375 0.859375 -2.59375q0.875 -1.0 2.296875 -1.0q1.5 0 2.328125 0.953125q0.828125 0.953125 0.828125 2.640625q0 1.6875 -0.859375 2.65625q-0.84375 0.96875 -2.296875 0.96875q-1.484375 0 -2.328125 -0.96875q-0.828125 -0.984375 -0.828125 -2.65625zm1.296875 0q0 2.625 1.859375 2.625q0.859375 0 1.34375 -0.703125q0.5 -0.703125 0.5 -1.921875q0 -2.59375 -1.84375 -2.59375q-0.84375 0 -1.359375 0.6875q-0.5 0.6875 -0.5 1.90625zm7.5427856 3.109375l0 3.125l-1.234375 0l0 -9.703125l1.234375 0l0 0.578125q0.703125 -0.703125 1.703125 -0.703125q1.484375 0 2.3125 0.921875q0.828125 0.921875 0.828125 2.703125q0 1.59375 -0.84375 2.59375q-0.828125 1.0 -2.40625 1.0q-0.4375 0 -0.9375 -0.15625q-0.5 -0.15625 -0.65625 -0.359375zm0 -5.078125l0 4.0625q0.125 0.171875 0.5 0.34375q0.375 0.15625 0.734375 0.15625q2.3125 0 2.3125 -2.609375q0 -1.3125 -0.546875 -1.921875q-0.546875 -0.625 -1.765625 -0.625q-0.25 0 -0.625 0.1875q-0.375 0.1875 -0.609375 0.40625zm14.269241 5.46875l0 -4.40625q0 -1.65625 -1.4375 -1.65625q-0.4375 0 -0.828125 0.28125q-0.390625 0.28125 -0.53125 0.625l0 5.15625l-1.25 0l0 -4.953125q0 -0.515625 -0.390625 -0.8125q-0.375 -0.296875 -1.015625 -0.296875q-0.375 0 -0.796875 0.296875q-0.40625 0.28125 -0.59375 0.625l0 5.140625l-1.234375 0l0 -6.96875l0.8125 0l0.40625 0.8125q0.71875 -0.9375 1.796875 -0.9375q1.484375 0 2.09375 0.921875q0.203125 -0.390625 0.765625 -0.65625q0.578125 -0.265625 1.171875 -0.265625q1.078125 0 1.671875 0.640625q0.59375 0.640625 0.59375 1.796875l0 4.65625l-1.234375 0zm8.86026 -3.359375l-5.03125 0q0 1.21875 0.671875 1.875q0.59375 0.578125 1.53125 0.578125q1.0625 0 1.765625 -0.625l0.515625 0.890625q-0.28125 0.296875 -0.875 0.5q-0.734375 0.265625 -1.65625 0.265625q-1.3125 0 -2.234375 -0.890625q-1.015625 -0.984375 -1.015625 -2.640625q0 -1.71875 1.046875 -2.765625q0.9375 -0.921875 2.21875 -0.921875q1.5 0 2.34375 0.828125q0.8125 0.8125 0.8125 2.140625q0 0.421875 -0.09375 0.765625zm-3.0 -2.703125q-0.828125 0 -1.390625 0.53125q-0.53125 0.515625 -0.609375 1.265625l3.859375 0q0 -0.75 -0.46875 -1.25q-0.5 -0.546875 -1.390625 -0.546875zm8.691177 6.0625l0 -4.046875q0 -1.125 -0.34375 -1.5625q-0.328125 -0.453125 -1.125 -0.453125q-0.421875 0 -0.890625 0.265625q-0.453125 0.25 -0.703125 0.609375l0 5.1875l-1.234375 0l0 -6.96875l0.84375 0l0.390625 0.890625q0.625 -1.015625 2.0 -1.015625q2.296875 0 2.296875 2.78125l0 4.3125l-1.234375 0zm3.438568 -6.0l-0.8125 0l0 -0.96875l0.8125 0l0 -1.453125l1.234375 -0.484375l0 1.9375l1.90625 0l0 0.96875l-1.90625 0l0 3.46875q0 0.875 0.296875 1.25q0.296875 0.375 0.953125 0.375q0.46875 0 0.984375 -0.25l0.171875 1.09375q-0.765625 0.1875 -1.6875 0.1875q-0.828125 0 -1.390625 -0.609375q-0.5625 -0.609375 -0.5625 -1.546875l0 -3.96875z" fill-rule="nonzero"/><path fill="#000000" fill-opacity="0.0" d="m26.388285 244.59369l130.48819 0l0 67.87402l-130.48819 0z" fill-rule="evenodd"/><path fill="#000000" d="m64.293 265.95618l0.46875 -1.203125q0.375 0.28125 0.90625 0.453125q0.546875 0.171875 0.984375 0.171875q0.75 0 1.21875 -0.40625q0.46875 -0.421875 0.46875 -1.0625q0 -0.484375 -0.265625 -0.890625q-0.25 -0.421875 -1.28125 -0.90625l-0.78125 -0.359375q-0.96875 -0.453125 -1.359375 -1.078125q-0.390625 -0.625 -0.390625 -1.5q0 -1.078125 0.75 -1.78125q0.765625 -0.703125 1.953125 -0.703125q1.578125 0 2.203125 0.515625l-0.390625 1.140625q-0.265625 -0.1875 -0.796875 -0.359375q-0.53125 -0.1875 -0.984375 -0.1875q-0.671875 0 -1.046875 0.390625q-0.375 0.375 -0.375 0.953125q0 0.375 0.125 0.671875q0.140625 0.296875 0.375 0.5q0.25 0.203125 1.015625 0.5625l0.78125 0.375q0.96875 0.46875 1.359375 1.109375q0.40625 0.640625 0.40625 1.625q0 1.078125 -0.875 1.828125q-0.859375 0.734375 -2.296875 0.734375q-1.28125 0 -2.171875 -0.59375zm12.004013 -5.96875l-0.609375 0.875q-0.1875 -0.1875 -0.671875 -0.359375q-0.484375 -0.171875 -0.9375 -0.171875q-1.015625 0 -1.609375 0.71875q-0.59375 0.703125 -0.59375 1.921875q0 1.234375 0.609375 1.875q0.609375 0.640625 1.6875 0.640625q0.828125 0 1.671875 -0.65625l0.484375 1.046875q-0.984375 0.640625 -2.46875 0.640625q-1.421875 0 -2.359375 -0.953125q-0.921875 -0.953125 -0.921875 -2.59375q0 -1.65625 0.96875 -2.65625q0.96875 -1.015625 2.640625 -1.015625q0.546875 0 1.171875 0.234375q0.640625 0.21875 0.9375 0.453125zm2.6146088 -3.203125q0.3125 0 0.53125 0.234375q0.234375 0.21875 0.234375 0.53125q0 0.3125 -0.234375 0.546875q-0.21875 0.21875 -0.53125 0.21875q-0.3125 0 -0.546875 -0.21875q-0.21875 -0.234375 -0.21875 -0.546875q0 -0.3125 0.21875 -0.53125q0.21875 -0.234375 0.546875 -0.234375zm-0.671875 9.609375l0 -5.921875l-0.96875 0l0 -1.046875l2.203125 0l0 6.96875l-1.234375 0zm9.066223 -3.359375l-5.03125 0q0 1.21875 0.671875 1.875q0.59375 0.578125 1.53125 0.578125q1.0625 0 1.765625 -0.625l0.515625 0.890625q-0.28125 0.296875 -0.875 0.5q-0.734375 0.265625 -1.65625 0.265625q-1.3125 0 -2.234375 -0.890625q-1.015625 -0.984375 -1.015625 -2.640625q0 -1.71875 1.046875 -2.765625q0.9375 -0.921875 2.21875 -0.921875q1.5 0 2.34375 0.828125q0.8125 0.8125 0.8125 2.140625q0 0.421875 -0.09375 0.765625zm-3.0 -2.703125q-0.828125 0 -1.390625 0.53125q-0.53125 0.515625 -0.609375 1.265625l3.859375 0q0 -0.75 -0.46875 -1.25q-0.5 -0.546875 -1.390625 -0.546875zm8.691177 6.0625l0 -4.046875q0 -1.125 -0.34375 -1.5625q-0.328125 -0.453125 -1.125 -0.453125q-0.421875 0 -0.890625 0.265625q-0.453125 0.25 -0.703125 0.609375l0 5.1875l-1.234375 0l0 -6.96875l0.84375 0l0.390625 0.890625q0.625 -1.015625 2.0 -1.015625q2.296875 0 2.296875 2.78125l0 4.3125l-1.234375 0zm3.438568 -6.0l-0.8125 0l0 -0.96875l0.8125 0l0 -1.453125l1.234375 -0.484375l0 1.9375l1.90625 0l0 0.96875l-1.90625 0l0 3.46875q0 0.875 0.296875 1.25q0.296875 0.375 0.953125 0.375q0.46875 0 0.984375 -0.25l0.171875 1.09375q-0.765625 0.1875 -1.6875 0.1875q-0.828125 0 -1.390625 -0.609375q-0.5625 -0.609375 -0.5625 -1.546875l0 -3.96875zm6.1125183 -3.609375q0.3125 0 0.53125 0.234375q0.234375 0.21875 0.234375 0.53125q0 0.3125 -0.234375 0.546875q-0.21875 0.21875 -0.53125 0.21875q-0.3125 0 -0.546875 -0.21875q-0.21875 -0.234375 -0.21875 -0.546875q0 -0.3125 0.21875 -0.53125q0.21875 -0.234375 0.546875 -0.234375zm-0.671875 9.609375l0 -5.921875l-0.96875 0l0 -1.046875l2.203125 0l0 6.96875l-1.234375 0zm6.956848 -8.71875q-0.375 -0.125 -0.703125 -0.125q-0.5625 0 -0.9375 0.4375q-0.359375 0.421875 -0.359375 1.078125q0 0.171875 0.03125 0.359375l1.421875 0l0 1.046875l-1.421875 0l0 5.921875l-1.234375 0l0 -5.921875l-1.015625 0l0 -1.046875l1.015625 0q0 -1.328125 0.65625 -2.09375q0.65625 -0.765625 1.734375 -0.765625q0.546875 0 1.15625 0.203125l-0.34375 0.90625zm2.442093 -0.890625q0.3125 0 0.53125 0.234375q0.234375 0.21875 0.234375 0.53125q0 0.3125 -0.234375 0.546875q-0.21875 0.21875 -0.53125 0.21875q-0.3125 0 -0.546875 -0.21875q-0.21875 -0.234375 -0.21875 -0.546875q0 -0.3125 0.21875 -0.53125q0.21875 -0.234375 0.546875 -0.234375zm-0.671875 9.609375l0 -5.921875l-0.96875 0l0 -1.046875l2.203125 0l0 6.96875l-1.234375 0zm8.456848 -6.40625l-0.609375 0.875q-0.1875 -0.1875 -0.671875 -0.359375q-0.484375 -0.171875 -0.9375 -0.171875q-1.015625 0 -1.609375 0.71875q-0.59375 0.703125 -0.59375 1.921875q0 1.234375 0.609375 1.875q0.609375 0.640625 1.6875 0.640625q0.828125 0 1.671875 -0.65625l0.484375 1.046875q-0.984375 0.640625 -2.46875 0.640625q-1.421875 0 -2.359375 -0.953125q-0.921875 -0.953125 -0.921875 -2.59375q0 -1.65625 0.96875 -2.65625q0.96875 -1.015625 2.640625 -1.015625q0.546875 0 1.171875 0.234375q0.640625 0.21875 0.9375 0.453125z" fill-rule="nonzero"/><path fill="#000000" d="m54.66461 274.0343l0 2.640625l3.140625 0l0 1.109375l-3.140625 0l0 3.4375l4.3125 0l0 1.171875l-5.625 0l0 -9.53125l5.703125 0l0 1.171875l-4.390625 0zm8.24852 8.484375l-0.328125 0l-2.984375 -7.109375l1.359375 0l1.84375 4.875l1.875 -4.875l1.296875 0l-3.0625 7.109375zm7.94928 -0.921875q-0.734375 0.921875 -2.265625 0.921875q-0.828125 0 -1.4375 -0.59375q-0.59375 -0.59375 -0.59375 -1.484375q0 -1.046875 0.921875 -1.78125q0.9375 -0.734375 2.375 -0.734375q0.390625 0 0.890625 0.171875q0 -1.703125 -1.515625 -1.703125q-1.15625 0 -1.78125 0.625l-0.515625 -1.03125q0.34375 -0.28125 0.96875 -0.484375q0.625 -0.203125 1.1875 -0.203125q1.515625 0 2.203125 0.6875q0.6875 0.6875 0.6875 2.1875l0 2.5q0 0.921875 0.546875 1.21875l0 0.625q-0.75 0 -1.125 -0.21875q-0.375 -0.21875 -0.546875 -0.703125zm-0.109375 -2.625q-0.59375 -0.125 -0.828125 -0.125q-0.9375 0 -1.53125 0.484375q-0.59375 0.46875 -0.59375 1.125q0 1.09375 1.296875 1.09375q0.921875 0 1.65625 -0.890625l0 -1.6875zm3.268097 1.453125l0 -7.859375l1.25 0l0 7.640625q0 0.5625 0.3125 0.890625q0.328125 0.328125 0.84375 0.328125l0 1.09375q-2.40625 0 -2.40625 -2.09375zm5.0088806 -5.0l0 4.4375q0 1.625 1.40625 1.625q0.609375 0 1.109375 -0.34375q0.515625 -0.359375 0.671875 -0.828125l0 -4.890625l1.234375 0l0 6.96875l-1.234375 0l0 -0.96875q-0.203125 0.421875 -0.828125 0.765625q-0.625 0.328125 -1.234375 0.328125q-1.140625 0 -1.75 -0.65625q-0.609375 -0.65625 -0.609375 -1.859375l0 -4.578125l1.234375 0zm10.047943 6.171875q-0.734375 0.921875 -2.265625 0.921875q-0.828125 0 -1.4375 -0.59375q-0.59375 -0.59375 -0.59375 -1.484375q0 -1.046875 0.921875 -1.78125q0.9375 -0.734375 2.375 -0.734375q0.390625 0 0.890625 0.171875q0 -1.703125 -1.515625 -1.703125q-1.15625 0 -1.78125 0.625l-0.515625 -1.03125q0.34375 -0.28125 0.96875 -0.484375q0.625 -0.203125 1.1875 -0.203125q1.515625 0 2.203125 0.6875q0.6875 0.6875 0.6875 2.1875l0 2.5q0 0.921875 0.546875 1.21875l0 0.625q-0.75 0 -1.125 -0.21875q-0.375 -0.21875 -0.546875 -0.703125zm-0.109375 -2.625q-0.59375 -0.125 -0.828125 -0.125q-0.9375 0 -1.53125 0.484375q-0.59375 0.46875 -0.59375 1.125q0 1.09375 1.296875 1.09375q0.921875 0 1.65625 -0.890625l0 -1.6875zm3.627472 -2.578125l-0.8125 0l0 -0.96875l0.8125 0l0 -1.453125l1.234375 -0.484375l0 1.9375l1.90625 0l0 0.96875l-1.90625 0l0 3.46875q0 0.875 0.296875 1.25q0.296875 0.375 0.953125 0.375q0.46875 0 0.984375 -0.25l0.171875 1.09375q-0.765625 0.1875 -1.6875 0.1875q-0.828125 0 -1.390625 -0.609375q-0.5625 -0.609375 -0.5625 -1.546875l0 -3.96875zm6.1125183 -3.609375q0.3125 0 0.53125 0.234375q0.234375 0.21875 0.234375 0.53125q0 0.3125 -0.234375 0.546875q-0.21875 0.21875 -0.53125 0.21875q-0.3125 0 -0.546875 -0.21875q-0.21875 -0.234375 -0.21875 -0.546875q0 -0.3125 0.21875 -0.53125q0.21875 -0.234375 0.546875 -0.234375zm-0.671875 9.609375l0 -5.921875l-0.96875 0l0 -1.046875l2.203125 0l0 6.96875l-1.234375 0zm2.7380981 -3.5q0 -1.609375 0.859375 -2.59375q0.875 -1.0 2.296875 -1.0q1.5 0 2.328125 0.953125q0.828125 0.953125 0.828125 2.640625q0 1.6875 -0.859375 2.65625q-0.84375 0.96875 -2.296875 0.96875q-1.484375 0 -2.328125 -0.96875q-0.828125 -0.984375 -0.828125 -2.65625zm1.296875 0q0 2.625 1.859375 2.625q0.859375 0 1.34375 -0.703125q0.5 -0.703125 0.5 -1.921875q0 -2.59375 -1.84375 -2.59375q-0.84375 0 -1.359375 0.6875q-0.5 0.6875 -0.5 1.90625zm10.605286 3.5l0 -4.046875q0 -1.125 -0.34375 -1.5625q-0.328125 -0.453125 -1.125 -0.453125q-0.421875 0 -0.890625 0.265625q-0.453125 0.25 -0.703125 0.609375l0 5.1875l-1.234375 0l0 -6.96875l0.84375 0l0.390625 0.890625q0.625 -1.015625 2.0 -1.015625q2.296875 0 2.296875 2.78125l0 4.3125l-1.234375 0zm6.5476837 -3.5q0 -1.609375 0.859375 -2.59375q0.875 -1.0 2.296875 -1.0q1.5 0 2.328125 0.953125q0.828125 0.953125 0.828125 2.640625q0 1.6875 -0.859375 2.65625q-0.84375 0.96875 -2.296875 0.96875q-1.484375 0 -2.328125 -0.96875q-0.828125 -0.984375 -0.828125 -2.65625zm1.296875 0q0 2.625 1.859375 2.625q0.859375 0 1.34375 -0.703125q0.5 -0.703125 0.5 -1.921875q0 -2.59375 -1.84375 -2.59375q-0.84375 0 -1.359375 0.6875q-0.5 0.6875 -0.5 1.90625zm10.074036 -5.21875q-0.375 -0.125 -0.703125 -0.125q-0.5625 0 -0.9375 0.4375q-0.359375 0.421875 -0.359375 1.078125q0 0.171875 0.03125 0.359375l1.421875 0l0 1.046875l-1.421875 0l0 5.921875l-1.234375 0l0 -5.921875l-1.015625 0l0 -1.046875l1.015625 0q0 -1.328125 0.65625 -2.09375q0.65625 -0.765625 1.734375 -0.765625q0.546875 0 1.15625 0.203125l-0.34375 0.90625z" fill-rule="nonzero"/><path fill="#000000" d="m68.680595 293.54993q0 -2.078125 1.03125 -3.46875q1.046875 -1.390625 2.8125 -1.390625q1.984375 0 3.03125 1.28125q1.0625 1.28125 1.0625 3.578125q0 2.34375 -1.0625 3.671875q-1.046875 1.328125 -3.03125 1.328125q-1.796875 0 -2.828125 -1.40625q-1.015625 -1.40625 -1.015625 -3.59375zm1.375 0q0 1.640625 0.640625 2.734375q0.65625 1.09375 1.828125 1.09375q1.328125 0 2.03125 -1.0q0.703125 -1.015625 0.703125 -2.828125q0 -3.6875 -2.734375 -3.6875q-1.203125 0 -1.84375 1.0q-0.625 0.984375 -0.625 2.6875zm9.1371155 -2.125l0 4.4375q0 1.625 1.40625 1.625q0.609375 0 1.109375 -0.34375q0.515625 -0.359375 0.671875 -0.828125l0 -4.890625l1.234375 0l0 6.96875l-1.234375 0l0 -0.96875q-0.203125 0.421875 -0.828125 0.765625q-0.625 0.328125 -1.234375 0.328125q-1.140625 0 -1.75 -0.65625q-0.609375 -0.65625 -0.609375 -1.859375l0 -4.578125l1.234375 0zm6.563568 0.96875l-0.8125 0l0 -0.96875l0.8125 0l0 -1.453125l1.234375 -0.484375l0 1.9375l1.90625 0l0 0.96875l-1.90625 0l0 3.46875q0 0.875 0.296875 1.25q0.296875 0.375 0.953125 0.375q0.46875 0 0.984375 -0.25l0.171875 1.09375q-0.765625 0.1875 -1.6875 0.1875q-0.828125 0 -1.390625 -0.609375q-0.5625 -0.609375 -0.5625 -1.546875l0 -3.96875zm6.0656433 5.609375l0 3.125l-1.234375 0l0 -9.703125l1.234375 0l0 0.578125q0.703125 -0.703125 1.703125 -0.703125q1.484375 0 2.3125 0.921875q0.828125 0.921875 0.828125 2.703125q0 1.59375 -0.84375 2.59375q-0.828125 1.0 -2.40625 1.0q-0.4375 0 -0.9375 -0.15625q-0.5 -0.15625 -0.65625 -0.359375zm0 -5.078125l0 4.0625q0.125 0.171875 0.5 0.34375q0.375 0.15625 0.734375 0.15625q2.3125 0 2.3125 -2.609375q0 -1.3125 -0.546875 -1.921875q-0.546875 -0.625 -1.765625 -0.625q-0.25 0 -0.625 0.1875q-0.375 0.1875 -0.609375 0.40625zm7.3629913 -1.5l0 4.4375q0 1.625 1.40625 1.625q0.609375 0 1.109375 -0.34375q0.515625 -0.359375 0.671875 -0.828125l0 -4.890625l1.234375 0l0 6.96875l-1.234375 0l0 -0.96875q-0.203125 0.421875 -0.828125 0.765625q-0.625 0.328125 -1.234375 0.328125q-1.140625 0 -1.75 -0.65625q-0.609375 -0.65625 -0.609375 -1.859375l0 -4.578125l1.234375 0zm6.563568 0.96875l-0.8125 0l0 -0.96875l0.8125 0l0 -1.453125l1.234375 -0.484375l0 1.9375l1.90625 0l0 0.96875l-1.90625 0l0 3.46875q0 0.875 0.296875 1.25q0.296875 0.375 0.953125 0.375q0.46875 0 0.984375 -0.25l0.171875 1.09375q-0.765625 0.1875 -1.6875 0.1875q-0.828125 0 -1.390625 -0.609375q-0.5625 -0.609375 -0.5625 -1.546875l0 -3.96875zm4.3781433 5.578125l0.4375 -1.171875q1.03125 0.6875 1.671875 0.6875q1.140625 0 1.140625 -0.96875q0 -0.6875 -1.109375 -1.1875q-0.84375 -0.390625 -1.140625 -0.59375q-0.296875 -0.203125 -0.515625 -0.453125q-0.21875 -0.25 -0.328125 -0.546875q-0.109375 -0.296875 -0.109375 -0.625q0 -0.859375 0.625 -1.328125q0.625 -0.484375 1.640625 -0.484375q0.75 0 1.90625 0.46875l-0.34375 1.15625q-0.734375 -0.59375 -1.484375 -0.59375q-0.4375 0 -0.75 0.21875q-0.296875 0.203125 -0.296875 0.515625q0 0.671875 0.765625 1.015625l0.890625 0.40625q0.8125 0.375 1.171875 0.859375q0.375 0.46875 0.375 1.171875q0 0.9375 -0.65625 1.46875q-0.65625 0.53125 -1.8125 0.53125q-1.109375 0 -2.078125 -0.546875z" fill-rule="nonzero"/><path fill="#93c47d" d="m398.3233 431.09155l15.795258 0l15.795288 15.937012l-15.795288 15.937012l-15.795258 0z" fill-rule="evenodd"/><path stroke="#93c47d" stroke-width="1.0" stroke-linejoin="round" stroke-linecap="butt" d="m398.3233 431.09155l15.795258 0l15.795288 15.937012l-15.795288 15.937012l-15.795258 0z" fill-rule="evenodd"/><path fill="#ffcc4c" d="m386.97864 431.09155l15.795288 0l15.795258 15.937012l-15.795258 15.937012l-15.795288 0z" fill-rule="evenodd"/><path stroke="#ffcc4c" stroke-width="1.0" stroke-linejoin="round" stroke-linecap="butt" d="m386.97864 431.09155l15.795288 0l15.795258 15.937012l-15.795258 15.937012l-15.795288 0z" fill-rule="evenodd"/><path fill="#c13018" d="m301.51526 431.09042l89.19684 0l15.937012 15.937012l-15.937012 15.936981l-89.19684 0z" fill-rule="evenodd"/><path stroke="#c13018" stroke-width="1.0" stroke-linejoin="round" stroke-linecap="butt" d="m301.51526 431.09042l89.19684 0l15.937012 15.937012l-15.937012 15.936981l-89.19684 0z" fill-rule="evenodd"/><path fill="#ffcc4c" d="m203.42752 431.0918l104.28348 0l15.936981 15.937012l-15.936981 15.937012l-104.28348 0z" fill-rule="evenodd"/><path stroke="#ffcc4c" stroke-width="1.0" stroke-linejoin="round" stroke-linecap="butt" d="m203.42752 431.0918l104.28348 0l15.936981 15.937012l-15.936981 15.937012l-104.28348 0z" fill-rule="evenodd"/><path fill="#93c47d" d="m64.149345 431.0918l146.29922 0l15.936996 15.937012l-15.936996 15.937012l-146.29922 0z" fill-rule="evenodd"/><path stroke="#93c47d" stroke-width="1.0" stroke-linejoin="round" stroke-linecap="butt" d="m64.149345 431.0918l146.29922 0l15.936996 15.937012l-15.936996 15.937012l-146.29922 0z" fill-rule="evenodd"/><path fill="#4a86e8" d="m15.611092 431.09155l82.29921 0l15.937012 15.937012l-15.937012 15.937012l-82.29921 0z" fill-rule="evenodd"/><path stroke="#4a86e8" stroke-width="1.0" stroke-linejoin="round" stroke-linecap="butt" d="m15.611092 431.09155l82.29921 0l15.937012 15.937012l-15.937012 15.937012l-82.29921 0z" fill-rule="evenodd"/><path fill="#93c47d" d="m1.6539428 431.09155l13.480314 0l13.480315 15.937012l-13.480315 15.937012l-13.480314 0l13.480314 -15.937012z" fill-rule="evenodd"/><path stroke="#93c47d" stroke-width="1.0" stroke-linejoin="round" stroke-linecap="butt" d="m1.6539428 431.09155l13.480314 0l13.480315 15.937012l-13.480315 15.937012l-13.480314 0l13.480314 -15.937012z" fill-rule="evenodd"/><path fill="#000000" fill-opacity="0.0" d="m30.561733 429.2479l72.06299 0l0 35.55905l-72.06299 0z" fill-rule="evenodd"/><path fill="#ffffff" d="m53.188454 441.86038l-0.4375 1.125q-0.625 -0.46875 -1.96875 -0.46875q-1.25 0 -2.015625 1.09375q-0.75 1.078125 -0.75 2.78125q0 1.625 0.765625 2.640625q0.78125 1.0 2.015625 1.0q1.34375 0 2.0625 -0.9375l0.71875 0.984375q-1.140625 1.125 -2.921875 1.125q-1.859375 0 -2.9375 -1.34375q-1.078125 -1.34375 -1.078125 -3.546875q0 -2.140625 1.140625 -3.546875q1.15625 -1.421875 2.96875 -1.421875q1.5625 0 2.4375 0.515625zm1.8784027 7.21875l0 -7.859375l1.25 0l0 7.640625q0 0.5625 0.3125 0.890625q0.328125 0.328125 0.84375 0.328125l0 1.09375q-2.40625 0 -2.40625 -2.09375zm5.1182556 -7.640625q0.3125 0 0.53125 0.234375q0.234375 0.21875 0.234375 0.53125q0 0.3125 -0.234375 0.546875q-0.21875 0.21875 -0.53125 0.21875q-0.3125 0 -0.546875 -0.21875q-0.21875 -0.234375 -0.21875 -0.546875q0 -0.3125 0.21875 -0.53125q0.21875 -0.234375 0.546875 -0.234375zm-0.671875 9.609375l0 -5.921875l-0.96875 0l0 -1.046875l2.203125 0l0 6.96875l-1.234375 0zm9.066223 -3.359375l-5.031254 0q0 1.21875 0.6718788 1.875q0.59375 0.578125 1.53125 0.578125q1.0625 0 1.765625 -0.625l0.515625 0.890625q-0.28125 0.296875 -0.875 0.5q-0.734375 0.265625 -1.65625 0.265625q-1.3125 0 -2.2343788 -0.890625q-1.0156212 -0.984375 -1.0156212 -2.640625q0 -1.71875 1.0468712 -2.765625q0.9375038 -0.921875 2.2187538 -0.921875q1.5 0 2.34375 0.828125q0.8125 0.8125 0.8125 2.140625q0 0.421875 -0.09375 0.765625zm-3.0 -2.703125q-0.828125 0 -1.390625 0.53125q-0.5312538 0.515625 -0.6093788 1.265625l3.8593788 0q0 -0.75 -0.46875 -1.25q-0.5 -0.546875 -1.390625 -0.546875zm8.691177 6.0625l0 -4.046875q0 -1.125 -0.34375 -1.5625q-0.328125 -0.453125 -1.125 -0.453125q-0.421875 0 -0.890625 0.265625q-0.453125 0.25 -0.703125 0.609375l0 5.1875l-1.234375 0l0 -6.96875l0.84375 0l0.390625 0.890625q0.625 -1.015625 2.0 -1.015625q2.296875 0 2.296875 2.78125l0 4.3125l-1.234375 0zm3.438568 -6.0l-0.8125 0l0 -0.96875l0.8125 0l0 -1.453125l1.234375 -0.484375l0 1.9375l1.90625 0l0 0.96875l-1.90625 0l0 3.46875q0 0.875 0.296875 1.25q0.296875 0.375 0.953125 0.375q0.46875 0 0.984375 -0.25l0.171875 1.09375q-0.765625 0.1875 -1.6875 0.1875q-0.828125 0 -1.390625 -0.609375q-0.5625 -0.609375 -0.5625 -1.546875l0 -3.96875zm4.3781433 5.578125l0.4375 -1.171875q1.03125 0.6875 1.671875 0.6875q1.140625 0 1.140625 -0.96875q0 -0.6875 -1.109375 -1.1875q-0.84375 -0.390625 -1.140625 -0.59375q-0.296875 -0.203125 -0.515625 -0.453125q-0.21875 -0.25 -0.328125 -0.546875q-0.109375 -0.296875 -0.109375 -0.625q0 -0.859375 0.625 -1.328125q0.625 -0.484375 1.640625 -0.484375q0.75 0 1.90625 0.46875l-0.34375 1.15625q-0.734375 -0.59375 -1.484375 -0.59375q-0.4375 0 -0.75 0.21875q-0.296875 0.203125 -0.296875 0.515625q0 0.671875 0.765625 1.015625l0.890625 0.40625q0.8125 0.375 1.171875 0.859375q0.375 0.46875 0.375 1.171875q0 0.9375 -0.65625 1.46875q-0.65625 0.53125 -1.8125 0.53125q-1.109375 0 -2.078125 -0.546875z" fill-rule="nonzero"/><path fill="#000000" fill-opacity="0.0" d="m105.95137 429.2479l120.220474 0l0 35.55905l-120.220474 0z" fill-rule="evenodd"/><path fill="#000000" d="m124.62123 451.04788l-2.546875 -4.09375q-0.4375 0 -1.375 -0.0625l0 4.15625l-1.296875 0l0 -9.53125q0.0625 0 1.0 -0.046875q0.953125 -0.046875 1.375 -0.046875q3.4375 0 3.4375 2.734375q0 0.890625 -0.5625 1.609375q-0.546875 0.71875 -1.3125 0.890625l2.765625 4.390625l-1.484375 0zm-3.921875 -8.359375l0 3.09375q0.46875 0.0625 0.90625 0.0625q1.171875 0 1.703125 -0.375q0.546875 -0.375 0.546875 -1.34375q0 -0.796875 -0.578125 -1.140625q-0.578125 -0.359375 -1.8125 -0.359375q-0.1875 0 -0.765625 0.0625zm12.163635 5.0l-5.03125 0q0 1.21875 0.671875 1.875q0.59375 0.578125 1.53125 0.578125q1.0625 0 1.765625 -0.625l0.515625 0.890625q-0.28125 0.296875 -0.875 0.5q-0.734375 0.265625 -1.65625 0.265625q-1.3125 0 -2.234375 -0.890625q-1.015625 -0.984375 -1.015625 -2.640625q0 -1.71875 1.046875 -2.765625q0.9375 -0.921875 2.21875 -0.921875q1.5 0 2.34375 0.828125q0.8125 0.8125 0.8125 2.140625q0 0.421875 -0.09375 0.765625zm-3.0 -2.703125q-0.828125 0 -1.390625 0.53125q-0.53125 0.515625 -0.609375 1.265625l3.859375 0q0 -0.75 -0.46875 -1.25q-0.5 -0.546875 -1.390625 -0.546875zm5.6286774 5.671875l0 3.125l-1.234375 0l0 -9.703125l1.234375 0l0 0.578125q0.703125 -0.703125 1.703125 -0.703125q1.484375 0 2.3125 0.921875q0.828125 0.921875 0.828125 2.703125q0 1.59375 -0.84375 2.59375q-0.828125 1.0 -2.40625 1.0q-0.4375 0 -0.9375 -0.15625q-0.5 -0.15625 -0.65625 -0.359375zm0 -5.078125l0 4.0625q0.125 0.171875 0.5 0.34375q0.375 0.15625 0.734375 0.15625q2.3125 0 2.3125 -2.609375q0 -1.3125 -0.546875 -1.921875q-0.546875 -0.625 -1.765625 -0.625q-0.25 0 -0.625 0.1875q-0.375 0.1875 -0.609375 0.40625zm9.987991 -0.3125q-0.40625 -0.28125 -0.8125 -0.28125q-0.65625 0 -1.15625 0.609375q-0.484375 0.609375 -0.484375 1.453125l0 4.0l-1.25 0l0 -6.96875l1.25 0l0 1.109375q0.671875 -1.234375 2.0 -1.234375q0.34375 0 0.96875 0.109375l-0.515625 1.203125zm7.2583923 2.421875l-5.03125 0q0 1.21875 0.671875 1.875q0.59375 0.578125 1.53125 0.578125q1.0625 0 1.765625 -0.625l0.515625 0.890625q-0.28125 0.296875 -0.875 0.5q-0.734375 0.265625 -1.65625 0.265625q-1.3125 0 -2.234375 -0.890625q-1.015625 -0.984375 -1.015625 -2.640625q0 -1.71875 1.046875 -2.765625q0.9375 -0.921875 2.21875 -0.921875q1.5 0 2.34375 0.828125q0.8125 0.8125 0.8125 2.140625q0 0.421875 -0.09375 0.765625zm-3.0 -2.703125q-0.828125 0 -1.390625 0.53125q-0.53125 0.515625 -0.609375 1.265625l3.859375 0q0 -0.75 -0.46875 -1.25q-0.5 -0.546875 -1.390625 -0.546875zm3.9411774 5.640625l0.4375 -1.171875q1.03125 0.6875 1.671875 0.6875q1.140625 0 1.140625 -0.96875q0 -0.6875 -1.109375 -1.1875q-0.84375 -0.390625 -1.140625 -0.59375q-0.296875 -0.203125 -0.515625 -0.453125q-0.21875 -0.25 -0.328125 -0.546875q-0.109375 -0.296875 -0.109375 -0.625q0 -0.859375 0.625 -1.328125q0.625 -0.484375 1.640625 -0.484375q0.75 0 1.90625 0.46875l-0.34375 1.15625q-0.734375 -0.59375 -1.484375 -0.59375q-0.4375 0 -0.75 0.21875q-0.296875 0.203125 -0.296875 0.515625q0 0.671875 0.765625 1.015625l0.890625 0.40625q0.8125 0.375 1.171875 0.859375q0.375 0.46875 0.375 1.171875q0 0.9375 -0.65625 1.46875q-0.65625 0.53125 -1.8125 0.53125q-1.109375 0 -2.078125 -0.546875zm11.72316 -2.9375l-5.03125 0q0 1.21875 0.671875 1.875q0.59375 0.578125 1.53125 0.578125q1.0625 0 1.765625 -0.625l0.515625 0.890625q-0.28125 0.296875 -0.875 0.5q-0.734375 0.265625 -1.65625 0.265625q-1.3125 0 -2.234375 -0.890625q-1.015625 -0.984375 -1.015625 -2.640625q0 -1.71875 1.046875 -2.765625q0.9375 -0.921875 2.21875 -0.921875q1.5 0 2.34375 0.828125q0.8125 0.8125 0.8125 2.140625q0 0.421875 -0.09375 0.765625zm-3.0 -2.703125q-0.828125 0 -1.390625 0.53125q-0.53125 0.515625 -0.609375 1.265625l3.859375 0q0 -0.75 -0.46875 -1.25q-0.5 -0.546875 -1.390625 -0.546875zm8.691177 6.0625l0 -4.046875q0 -1.125 -0.34375 -1.5625q-0.328125 -0.453125 -1.125 -0.453125q-0.421875 0 -0.890625 0.265625q-0.453125 0.25 -0.703125 0.609375l0 5.1875l-1.234375 0l0 -6.96875l0.84375 0l0.390625 0.890625q0.625 -1.015625 2.0 -1.015625q2.296875 0 2.296875 2.78125l0 4.3125l-1.234375 0zm3.438568 -6.0l-0.8125 0l0 -0.96875l0.8125 0l0 -1.453125l1.234375 -0.484375l0 1.9375l1.90625 0l0 0.96875l-1.90625 0l0 3.46875q0 0.875 0.296875 1.25q0.296875 0.375 0.953125 0.375q0.46875 0 0.984375 -0.25l0.171875 1.09375q-0.765625 0.1875 -1.6875 0.1875q-0.828125 0 -1.390625 -0.609375q-0.5625 -0.609375 -0.5625 -1.546875l0 -3.96875zm8.768768 5.203125q-0.734375 0.921875 -2.265625 0.921875q-0.828125 0 -1.4375 -0.59375q-0.59375 -0.59375 -0.59375 -1.484375q0 -1.046875 0.921875 -1.78125q0.9375 -0.734375 2.375 -0.734375q0.390625 0 0.890625 0.171875q0 -1.703125 -1.515625 -1.703125q-1.15625 0 -1.78125 0.625l-0.515625 -1.03125q0.34375 -0.28125 0.96875 -0.484375q0.625 -0.203125 1.1875 -0.203125q1.515625 0 2.203125 0.6875q0.6875 0.6875 0.6875 2.1875l0 2.5q0 0.921875 0.546875 1.21875l0 0.625q-0.75 0 -1.125 -0.21875q-0.375 -0.21875 -0.546875 -0.703125zm-0.109375 -2.625q-0.59375 -0.125 -0.828125 -0.125q-0.9375 0 -1.53125 0.484375q-0.59375 0.46875 -0.59375 1.125q0 1.09375 1.296875 1.09375q0.921875 0 1.65625 -0.890625l0 -1.6875zm3.627472 -2.578125l-0.8125 0l0 -0.96875l0.8125 0l0 -1.453125l1.234375 -0.484375l0 1.9375l1.90625 0l0 0.96875l-1.90625 0l0 3.46875q0 0.875 0.296875 1.25q0.296875 0.375 0.953125 0.375q0.46875 0 0.984375 -0.25l0.171875 1.09375q-0.765625 0.1875 -1.6875 0.1875q-0.828125 0 -1.390625 -0.609375q-0.5625 -0.609375 -0.5625 -1.546875l0 -3.96875zm6.1125183 -3.609375q0.3125 0 0.53125 0.234375q0.234375 0.21875 0.234375 0.53125q0 0.3125 -0.234375 0.546875q-0.21875 0.21875 -0.53125 0.21875q-0.3125 0 -0.546875 -0.21875q-0.21875 -0.234375 -0.21875 -0.546875q0 -0.3125 0.21875 -0.53125q0.21875 -0.234375 0.546875 -0.234375zm-0.671875 9.609375l0 -5.921875l-0.96875 0l0 -1.046875l2.203125 0l0 6.96875l-1.234375 0zm5.706848 0.125l-0.328125 0l-2.984375 -7.109375l1.359375 0l1.84375 4.875l1.875 -4.875l1.296875 0l-3.0625 7.109375zm9.88678 -3.484375l-5.03125 0q0 1.21875 0.671875 1.875q0.59375 0.578125 1.53125 0.578125q1.0625 0 1.765625 -0.625l0.515625 0.890625q-0.28125 0.296875 -0.875 0.5q-0.734375 0.265625 -1.65625 0.265625q-1.3125 0 -2.234375 -0.890625q-1.015625 -0.984375 -1.015625 -2.640625q0 -1.71875 1.046875 -2.765625q0.9375 -0.921875 2.21875 -0.921875q1.5 0 2.34375 0.828125q0.8125 0.8125 0.8125 2.140625q0 0.421875 -0.09375 0.765625zm-3.0 -2.703125q-0.828125 0 -1.390625 0.53125q-0.53125 0.515625 -0.609375 1.265625l3.859375 0q0 -0.75 -0.46875 -1.25q-0.5 -0.546875 -1.390625 -0.546875zm3.9411774 5.640625l0.4375 -1.171875q1.03125 0.6875 1.671875 0.6875q1.140625 0 1.140625 -0.96875q0 -0.6875 -1.109375 -1.1875q-0.84375 -0.390625 -1.140625 -0.59375q-0.296875 -0.203125 -0.515625 -0.453125q-0.21875 -0.25 -0.328125 -0.546875q-0.109375 -0.296875 -0.109375 -0.625q0 -0.859375 0.625 -1.328125q0.625 -0.484375 1.640625 -0.484375q0.75 0 1.90625 0.46875l-0.34375 1.15625q-0.734375 -0.59375 -1.484375 -0.59375q-0.4375 0 -0.75 0.21875q-0.296875 0.203125 -0.296875 0.515625q0 0.671875 0.765625 1.015625l0.890625 0.40625q0.8125 0.375 1.171875 0.859375q0.375 0.46875 0.375 1.171875q0 0.9375 -0.65625 1.46875q-0.65625 0.53125 -1.8125 0.53125q-1.109375 0 -2.078125 -0.546875z" fill-rule="nonzero"/><path fill="#000000" fill-opacity="0.0" d="m221.79001 429.2479l99.87402 0l0 35.55905l-99.87402 0z" fill-rule="evenodd"/><path fill="#000000" d="m242.19281 451.04788l-2.546875 -4.09375q-0.4375 0 -1.375 -0.0625l0 4.15625l-1.296875 0l0 -9.53125q0.0625 0 1.0 -0.046875q0.953125 -0.046875 1.375 -0.046875q3.4375 0 3.4375 2.734375q0 0.890625 -0.5625 1.609375q-0.546875 0.71875 -1.3125 0.890625l2.765625 4.390625l-1.484375 0zm-3.921875 -8.359375l0 3.09375q0.46875 0.0625 0.90625 0.0625q1.171875 0 1.703125 -0.375q0.546875 -0.375 0.546875 -1.34375q0 -0.796875 -0.578125 -1.140625q-0.578125 -0.359375 -1.8125 -0.359375q-0.1875 0 -0.765625 0.0625zm12.163635 5.0l-5.03125 0q0 1.21875 0.671875 1.875q0.59375 0.578125 1.53125 0.578125q1.0625 0 1.765625 -0.625l0.515625 0.890625q-0.28125 0.296875 -0.875 0.5q-0.734375 0.265625 -1.65625 0.265625q-1.3125 0 -2.234375 -0.890625q-1.015625 -0.984375 -1.015625 -2.640625q0 -1.71875 1.046875 -2.765625q0.9375 -0.921875 2.21875 -0.921875q1.5 0 2.34375 0.828125q0.8125 0.8125 0.8125 2.140625q0 0.421875 -0.09375 0.765625zm-3.0 -2.703125q-0.828125 0 -1.390625 0.53125q-0.53125 0.515625 -0.609375 1.265625l3.859375 0q0 -0.75 -0.46875 -1.25q-0.5 -0.546875 -1.390625 -0.546875zm3.9411774 5.640625l0.4375 -1.171875q1.03125 0.6875 1.671875 0.6875q1.140625 0 1.140625 -0.96875q0 -0.6875 -1.109375 -1.1875q-0.84375 -0.390625 -1.140625 -0.59375q-0.296875 -0.203125 -0.515625 -0.453125q-0.21875 -0.25 -0.328125 -0.546875q-0.109375 -0.296875 -0.109375 -0.625q0 -0.859375 0.625 -1.328125q0.625 -0.484375 1.640625 -0.484375q0.75 0 1.90625 0.46875l-0.34375 1.15625q-0.734375 -0.59375 -1.484375 -0.59375q-0.4375 0 -0.75 0.21875q-0.296875 0.203125 -0.296875 0.515625q0 0.671875 0.765625 1.015625l0.890625 0.40625q0.8125 0.375 1.171875 0.859375q0.375 0.46875 0.375 1.171875q0 0.9375 -0.65625 1.46875q-0.65625 0.53125 -1.8125 0.53125q-1.109375 0 -2.078125 -0.546875zm11.72316 -2.9375l-5.03125 0q0 1.21875 0.671875 1.875q0.59375 0.578125 1.53125 0.578125q1.0625 0 1.765625 -0.625l0.515625 0.890625q-0.28125 0.296875 -0.875 0.5q-0.734375 0.265625 -1.65625 0.265625q-1.3125 0 -2.234375 -0.890625q-1.015625 -0.984375 -1.015625 -2.640625q0 -1.71875 1.046875 -2.765625q0.9375 -0.921875 2.21875 -0.921875q1.5 0 2.34375 0.828125q0.8125 0.8125 0.8125 2.140625q0 0.421875 -0.09375 0.765625zm-3.0 -2.703125q-0.828125 0 -1.390625 0.53125q-0.53125 0.515625 -0.609375 1.265625l3.859375 0q0 -0.75 -0.46875 -1.25q-0.5 -0.546875 -1.390625 -0.546875zm8.331818 5.265625q-0.734375 0.921875 -2.265625 0.921875q-0.828125 0 -1.4375 -0.59375q-0.59375 -0.59375 -0.59375 -1.484375q0 -1.046875 0.921875 -1.78125q0.9375 -0.734375 2.375 -0.734375q0.390625 0 0.890625 0.171875q0 -1.703125 -1.515625 -1.703125q-1.15625 0 -1.78125 0.625l-0.515625 -1.03125q0.34375 -0.28125 0.96875 -0.484375q0.625 -0.203125 1.1875 -0.203125q1.515625 0 2.203125 0.6875q0.6875 0.6875 0.6875 2.1875l0 2.5q0 0.921875 0.546875 1.21875l0 0.625q-0.75 0 -1.125 -0.21875q-0.375 -0.21875 -0.546875 -0.703125zm-0.109375 -2.625q-0.59375 -0.125 -0.828125 -0.125q-0.9375 0 -1.53125 0.484375q-0.59375 0.46875 -0.59375 1.125q0 1.09375 1.296875 1.09375q0.921875 0 1.65625 -0.890625l0 -1.6875zm6.971222 -2.359375q-0.40625 -0.28125 -0.8125 -0.28125q-0.65625 0 -1.15625 0.609375q-0.484375 0.609375 -0.484375 1.453125l0 4.0l-1.25 0l0 -6.96875l1.25 0l0 1.109375q0.671875 -1.234375 2.0 -1.234375q0.34375 0 0.96875 0.109375l-0.515625 1.203125zm6.6490173 -0.625l-0.609375 0.875q-0.1875 -0.1875 -0.671875 -0.359375q-0.484375 -0.171875 -0.9375 -0.171875q-1.015625 0 -1.609375 0.71875q-0.59375 0.703125 -0.59375 1.921875q0 1.234375 0.609375 1.875q0.609375 0.640625 1.6875 0.640625q0.828125 0 1.671875 -0.65625l0.484375 1.046875q-0.984375 0.640625 -2.46875 0.640625q-1.421875 0 -2.359375 -0.953125q-0.921875 -0.953125 -0.921875 -2.59375q0 -1.65625 0.96875 -2.65625q0.96875 -1.015625 2.640625 -1.015625q0.546875 0 1.171875 0.234375q0.640625 0.21875 0.9375 0.453125zm5.6302185 6.40625l0 -4.375q0 -0.78125 -0.390625 -1.234375q-0.375 -0.453125 -1.078125 -0.453125q-0.4375 0 -0.890625 0.265625q-0.453125 0.265625 -0.703125 0.609375l0 5.1875l-1.234375 0l0 -9.828125l1.234375 0l0 3.625q0.25 -0.390625 0.796875 -0.640625q0.5625 -0.25 1.140625 -0.25q1.109375 0 1.734375 0.734375q0.625 0.71875 0.625 1.984375l0 4.375l-1.234375 0zm8.860443 -3.359375l-5.03125 0q0 1.21875 0.671875 1.875q0.59375 0.578125 1.53125 0.578125q1.0625 0 1.765625 -0.625l0.515625 0.890625q-0.28125 0.296875 -0.875 0.5q-0.734375 0.265625 -1.65625 0.265625q-1.3125 0 -2.234375 -0.890625q-1.015625 -0.984375 -1.015625 -2.640625q0 -1.71875 1.046875 -2.765625q0.9375 -0.921875 2.21875 -0.921875q1.5 0 2.34375 0.828125q0.8125 0.8125 0.8125 2.140625q0 0.421875 -0.09375 0.765625zm-3.0 -2.703125q-0.828125 0 -1.390625 0.53125q-0.53125 0.515625 -0.609375 1.265625l3.859375 0q0 -0.75 -0.46875 -1.25q-0.5 -0.546875 -1.390625 -0.546875zm8.191193 0.28125q-0.40625 -0.28125 -0.8125 -0.28125q-0.65625 0 -1.15625 0.609375q-0.484375 0.609375 -0.484375 1.453125l0 4.0l-1.25 0l0 -6.96875l1.25 0l0 1.109375q0.671875 -1.234375 2.0 -1.234375q0.34375 0 0.96875 0.109375l-0.515625 1.203125zm0.93026733 5.359375l0.4375 -1.171875q1.03125 0.6875 1.671875 0.6875q1.140625 0 1.140625 -0.96875q0 -0.6875 -1.109375 -1.1875q-0.84375 -0.390625 -1.140625 -0.59375q-0.296875 -0.203125 -0.515625 -0.453125q-0.21875 -0.25 -0.328125 -0.546875q-0.109375 -0.296875 -0.109375 -0.625q0 -0.859375 0.625 -1.328125q0.625 -0.484375 1.640625 -0.484375q0.75 0 1.90625 0.46875l-0.34375 1.15625q-0.734375 -0.59375 -1.484375 -0.59375q-0.4375 0 -0.75 0.21875q-0.296875 0.203125 -0.296875 0.515625q0 0.671875 0.765625 1.015625l0.890625 0.40625q0.8125 0.375 1.171875 0.859375q0.375 0.46875 0.375 1.171875q0 0.9375 -0.65625 1.46875q-0.65625 0.53125 -1.8125 0.53125q-1.109375 0 -2.078125 -0.546875z" fill-rule="nonzero"/><path fill="#000000" fill-opacity="0.0" d="m313.0825 429.2479l98.236206 0l0 35.55905l-98.236206 0z" fill-rule="evenodd"/><path fill="#ffffff" d="m332.29477 451.04788l-1.921875 0l0 -9.53125q1.84375 -0.0625 2.359375 -0.0625q2.0 0 3.15625 1.21875q1.171875 1.203125 1.171875 3.21875q0 5.15625 -4.765625 5.15625zm-0.609375 -8.359375l0 7.125q0.4375 0.0625 1.078125 0.0625q1.359375 0 2.140625 -1.015625q0.78125 -1.03125 0.78125 -2.859375q0 -3.375 -3.03125 -3.375q-0.1875 0 -0.96875 0.0625zm12.642639 5.0l-5.03125 0q0 1.21875 0.671875 1.875q0.59375 0.578125 1.53125 0.578125q1.0625 0 1.765625 -0.625l0.515625 0.890625q-0.28125 0.296875 -0.875 0.5q-0.734375 0.265625 -1.65625 0.265625q-1.3125 0 -2.234375 -0.890625q-1.015625 -0.984375 -1.015625 -2.640625q0 -1.71875 1.046875 -2.765625q0.9375 -0.921875 2.21875 -0.921875q1.5 0 2.34375 0.828125q0.8125 0.8125 0.8125 2.140625q0 0.421875 -0.09375 0.765625zm-3.0 -2.703125q-0.828125 0 -1.390625 0.53125q-0.53125 0.515625 -0.609375 1.265625l3.859375 0q0 -0.75 -0.46875 -1.25q-0.5 -0.546875 -1.390625 -0.546875zm6.909912 6.1875l-0.328125 0l-2.984375 -7.109375l1.359375 0l1.84375 4.875l1.875 -4.875l1.296875 0l-3.0625 7.109375zm9.88678 -3.484375l-5.03125 0q0 1.21875 0.671875 1.875q0.59375 0.578125 1.53125 0.578125q1.0625 0 1.765625 -0.625l0.515625 0.890625q-0.28125 0.296875 -0.875 0.5q-0.734375 0.265625 -1.65625 0.265625q-1.3125 0 -2.234375 -0.890625q-1.015625 -0.984375 -1.015625 -2.640625q0 -1.71875 1.046875 -2.765625q0.9375 -0.921875 2.21875 -0.921875q1.5 0 2.34375 0.828125q0.8125 0.8125 0.8125 2.140625q0 0.421875 -0.09375 0.765625zm-3.0 -2.703125q-0.828125 0 -1.390625 0.53125q-0.53125 0.515625 -0.609375 1.265625l3.859375 0q0 -0.75 -0.46875 -1.25q-0.5 -0.546875 -1.390625 -0.546875zm4.4880676 4.09375l0 -7.859375l1.25 0l0 7.640625q0 0.5625 0.3125 0.890625q0.328125 0.328125 0.84375 0.328125l0 1.09375q-2.40625 0 -2.40625 -2.09375zm3.3838806 -1.53125q0 -1.609375 0.859375 -2.59375q0.875 -1.0 2.296875 -1.0q1.5 0 2.328125 0.953125q0.828125 0.953125 0.828125 2.640625q0 1.6875 -0.859375 2.65625q-0.84375 0.96875 -2.296875 0.96875q-1.484375 0 -2.328125 -0.96875q-0.828125 -0.984375 -0.828125 -2.65625zm1.296875 0q0 2.625 1.859375 2.625q0.859375 0 1.34375 -0.703125q0.5 -0.703125 0.5 -1.921875q0 -2.59375 -1.84375 -2.59375q-0.84375 0 -1.359375 0.6875q-0.5 0.6875 -0.5 1.90625zm7.5427856 3.109375l0 3.125l-1.234375 0l0 -9.703125l1.234375 0l0 0.578125q0.703125 -0.703125 1.703125 -0.703125q1.484375 0 2.3125 0.921875q0.828125 0.921875 0.828125 2.703125q0 1.59375 -0.84375 2.59375q-0.828125 1.0 -2.40625 1.0q-0.4375 0 -0.9375 -0.15625q-0.5 -0.15625 -0.65625 -0.359375zm0 -5.078125l0 4.0625q0.125 0.171875 0.5 0.34375q0.375 0.15625 0.734375 0.15625q2.3125 0 2.3125 -2.609375q0 -1.3125 -0.546875 -1.921875q-0.546875 -0.625 -1.765625 -0.625q-0.25 0 -0.625 0.1875q-0.375 0.1875 -0.609375 0.40625zm12.066101 2.109375l-5.03125 0q0 1.21875 0.671875 1.875q0.59375 0.578125 1.53125 0.578125q1.0625 0 1.765625 -0.625l0.515625 0.890625q-0.28125 0.296875 -0.875 0.5q-0.734375 0.265625 -1.65625 0.265625q-1.3125 0 -2.234375 -0.890625q-1.015625 -0.984375 -1.015625 -2.640625q0 -1.71875 1.046875 -2.765625q0.9375 -0.921875 2.21875 -0.921875q1.5 0 2.34375 0.828125q0.8125 0.8125 0.8125 2.140625q0 0.421875 -0.09375 0.765625zm-3.0 -2.703125q-0.828125 0 -1.390625 0.53125q-0.53125 0.515625 -0.609375 1.265625l3.859375 0q0 -0.75 -0.46875 -1.25q-0.5 -0.546875 -1.390625 -0.546875zm8.191193 0.28125q-0.40625 -0.28125 -0.8125 -0.28125q-0.65625 0 -1.15625 0.609375q-0.484375 0.609375 -0.484375 1.453125l0 4.0l-1.25 0l0 -6.96875l1.25 0l0 1.109375q0.671875 -1.234375 2.0 -1.234375q0.34375 0 0.96875 0.109375l-0.515625 1.203125zm0.93026733 5.359375l0.4375 -1.171875q1.03125 0.6875 1.671875 0.6875q1.140625 0 1.140625 -0.96875q0 -0.6875 -1.109375 -1.1875q-0.84375 -0.390625 -1.140625 -0.59375q-0.296875 -0.203125 -0.515625 -0.453125q-0.21875 -0.25 -0.328125 -0.546875q-0.109375 -0.296875 -0.109375 -0.625q0 -0.859375 0.625 -1.328125q0.625 -0.484375 1.640625 -0.484375q0.75 0 1.90625 0.46875l-0.34375 1.15625q-0.734375 -0.59375 -1.484375 -0.59375q-0.4375 0 -0.75 0.21875q-0.296875 0.203125 -0.296875 0.515625q0 0.671875 0.765625 1.015625l0.890625 0.40625q0.8125 0.375 1.171875 0.859375q0.375 0.46875 0.375 1.171875q0 0.9375 -0.65625 1.46875q-0.65625 0.53125 -1.8125 0.53125q-1.109375 0 -2.078125 -0.546875z" fill-rule="nonzero"/></g></svg>